<?xml version="1.0" standalone="no"?>
<!DOCTYPE svg PUBLIC "-//W3C//DTD SVG 20010904//EN"
 "http://www.w3.org/TR/2001/REC-SVG-20010904/DTD/svg10.dtd">
<svg version="1.0" xmlns="http://www.w3.org/2000/svg"
 width="646.000000pt" height="386.000000pt" viewBox="0 0 646.000000 386.000000"
 preserveAspectRatio="xMidYMid meet">

<g transform="translate(0.000000,386.000000) scale(0.100000,-0.100000)"
fill="#000000" stroke="none">
<path d="M3045 3555 c-55 -14 -95 -52 -95 -89 0 -33 27 -105 55 -147 27 -41
26 -43 -39 -83 -16 -10 -49 -37 -72 -58 l-44 -40 -62 53 c-35 30 -111 99 -169
154 -153 144 -260 195 -408 195 -71 0 -90 -4 -132 -26 -77 -43 -145 -153 -189
-308 -20 -71 -21 -96 -17 -245 5 -187 22 -267 82 -398 132 -288 342 -453 577
-453 l88 0 84 -85 c46 -47 91 -85 100 -85 8 0 18 -5 22 -12 5 -8 -33 -10 -152
-5 -241 10 -245 11 -295 69 -80 95 -146 126 -202 97 -28 -15 -38 -30 -32 -49
4 -13 -5 -15 -63 -12 -81 4 -109 -10 -98 -52 4 -17 19 -32 41 -43 l34 -16 -40
-29 c-42 -30 -49 -56 -22 -83 16 -17 59 -17 126 0 24 6 34 2 65 -28 30 -28 47
-37 89 -41 28 -3 102 -20 165 -37 187 -51 207 -56 373 -88 198 -39 313 -73
330 -100 8 -13 -24 -137 -46 -181 -9 -19 -49 -66 -88 -104 l-70 -70 -23 21
c-83 76 -275 91 -503 41 -49 -11 -109 -24 -132 -29 -23 -4 -70 -16 -105 -24
-95 -25 -226 -45 -297 -45 -76 0 -74 -6 6 -25 129 -31 302 -19 626 45 148 29
280 16 342 -35 28 -22 28 -23 13 -47 -9 -14 -26 -28 -37 -31 -17 -4 -22 1 -27
30 -9 49 -41 66 -112 61 -63 -5 -184 -57 -262 -114 -33 -23 -50 -30 -60 -24
-18 11 -48 4 -72 -18 -25 -21 -24 -87 2 -119 11 -14 20 -32 20 -39 0 -22 51
-54 86 -54 19 0 53 5 77 12 41 10 45 9 86 -20 77 -56 165 -76 336 -78 83 0
157 -3 165 -6 51 -19 111 -27 230 -33 173 -9 193 -17 227 -92 14 -32 46 -89
70 -126 36 -57 52 -72 96 -92 98 -46 140 -34 239 66 114 117 192 289 169 375
-6 23 -14 30 -37 32 -19 2 -33 11 -39 25 -8 17 -18 22 -50 22 -36 0 -43 -5
-75 -47 -57 -77 -68 -69 -100 77 -6 27 -21 66 -33 88 -20 36 -21 40 -5 65 59
94 88 180 88 258 0 51 -24 198 -46 277 -11 41 -12 62 -5 71 23 28 202 113 286
136 235 65 243 67 296 59 30 -4 81 -8 115 -8 54 -1 63 2 89 29 25 27 27 32 16
56 -11 24 -15 26 -51 20 l-39 -6 10 28 c5 16 38 58 74 93 35 36 67 78 71 94
10 40 -7 78 -39 89 -22 8 -31 6 -50 -12 -14 -13 -36 -22 -56 -22 -17 0 -50 -9
-73 -20 l-40 -19 6 33 c9 47 -1 66 -34 66 -40 0 -64 -32 -62 -83 2 -27 -5 -53
-18 -74 l-20 -33 -129 0 c-70 0 -144 -3 -162 -7 l-34 -6 56 64 c133 154 189
276 189 416 0 80 -1 84 -34 120 l-34 38 67 56 c75 62 226 168 311 217 30 17
50 32 45 32 -29 0 -291 -169 -385 -250 -46 -39 -64 -48 -109 -54 -51 -7 -54
-6 -41 11 50 64 131 156 179 202 41 39 47 47 21 30 -57 -37 -159 -140 -200
-199 -48 -70 -88 -110 -111 -110 -33 0 -31 20 5 60 28 32 36 48 35 78 l0 37
-15 -46 c-7 -26 -20 -51 -27 -57 -10 -9 -12 3 -9 59 3 45 1 69 -7 69 -6 0 -8
-11 -5 -27 3 -16 1 -39 -4 -52 -8 -23 -9 -22 -16 18 -8 53 -42 152 -71 211
-27 53 -126 150 -172 169 -27 11 -36 23 -47 61 -8 27 -20 58 -26 70 -16 30 -7
35 101 51 128 19 112 33 -29 26 l-118 -5 -36 44 c-46 56 -133 126 -178 142
-119 44 -180 53 -245 37z m160 -48 c11 -3 34 -10 50 -17 l30 -11 -30 -27
c-110 -97 -196 -154 -211 -141 -22 18 -45 79 -46 121 0 34 5 47 28 66 25 22
34 24 93 19 37 -3 75 -8 86 -10z m-800 -58 c63 -31 121 -75 331 -252 131 -110
181 -144 192 -132 4 4 -8 18 -25 32 l-33 25 35 27 c18 14 57 42 85 61 28 19
90 64 138 99 99 72 74 38 -35 -47 -81 -64 -75 -77 20 -47 77 25 109 34 142 39
17 3 45 10 64 16 19 5 36 8 38 6 2 -1 -49 -20 -112 -41 -64 -21 -114 -43 -112
-48 1 -5 49 -10 106 -10 107 1 175 -12 299 -54 74 -26 82 -32 59 -51 -22 -19
-21 -132 2 -132 4 0 8 23 8 50 1 86 30 100 91 46 59 -54 97 -146 145 -354 4
-18 -7 -37 -49 -84 -30 -34 -52 -63 -49 -66 2 -3 -8 -12 -23 -20 -39 -21 -122
-16 -148 9 -13 12 -44 23 -75 28 -30 4 -64 13 -76 19 -33 18 -63 66 -63 101 0
17 -4 31 -10 31 -16 0 -23 -50 -11 -76 17 -38 -3 -28 -34 16 -30 44 -53 45
-31 1 l15 -28 -46 24 c-26 12 -52 23 -60 23 -20 0 -16 -18 6 -25 35 -11 113
-73 137 -109 31 -46 41 -101 16 -91 -115 48 -491 111 -507 85 -7 -11 21 -20
66 -20 83 0 449 -89 449 -110 0 -10 -36 -41 -42 -35 -2 3 -60 12 -129 21 -90
12 -164 15 -269 11 -146 -6 -165 -8 -252 -28 -54 -12 -66 -33 -15 -25 17 3
102 11 187 17 133 9 230 8 380 -7 14 -1 36 -3 49 -3 53 -2 10 -11 -75 -16
-134 -8 -235 -25 -276 -46 -41 -21 -53 -45 -17 -34 20 7 21 5 15 -28 -14 -77
27 -192 95 -259 l37 -38 -47 0 c-96 0 -216 65 -283 155 -53 70 -120 186 -121
212 -1 11 -5 19 -8 17 -5 -3 -27 53 -34 86 0 3 -7 36 -14 74 -8 39 -23 86 -35
105 -12 20 -26 51 -33 70 l-11 33 27 -26 c76 -73 193 20 193 154 0 124 -68
255 -198 381 -127 122 -203 166 -324 188 -46 8 -75 9 -99 2 -19 -6 -37 -9 -39
-6 -8 8 46 73 85 102 69 53 177 46 308 -18z m993 -49 c34 -28 62 -54 62 -59 0
-4 -33 -13 -72 -20 -40 -7 -96 -19 -124 -27 -88 -25 -91 -20 -29 48 31 33 62
72 68 85 5 12 15 23 21 23 6 0 39 -23 74 -50z m-1176 -94 c157 -58 295 -193
379 -369 48 -101 38 -236 -20 -267 -53 -28 -108 2 -137 75 -11 25 -22 45 -26
45 -4 0 -10 -16 -14 -35 -7 -39 8 -113 31 -151 8 -13 23 -36 32 -51 9 -16 18
-37 19 -48 8 -123 36 -225 84 -310 16 -29 30 -56 30 -60 0 -4 -37 -5 -81 -1
-247 20 -493 274 -574 591 -43 170 -44 372 -1 493 19 54 37 80 73 104 36 25
111 19 205 -16z m1326 -100 c7 -16 11 -31 8 -33 -2 -3 -40 4 -83 15 -43 11
-96 23 -118 27 l-40 7 70 19 c39 10 82 22 95 27 27 10 44 -6 68 -62z m467
-606 c-47 -47 -75 -62 -75 -40 0 6 4 10 8 10 5 0 14 10 19 23 10 21 64 56 88
57 5 0 -13 -22 -40 -50z m112 25 c30 -21 46 -93 33 -152 -16 -72 -42 -143 -67
-185 -13 -21 -23 -41 -23 -44 0 -11 -97 -138 -126 -164 l-28 -25 22 35 c57 92
120 264 108 295 -2 7 2 16 10 19 29 11 13 23 -28 22 l-43 -2 1 54 c2 51 4 57
55 108 29 30 56 54 59 54 3 0 15 -7 27 -15z m-250 -47 c7 17 30 15 30 -3 0 -8
-7 -15 -16 -15 -9 0 -36 -9 -60 -20 -62 -29 -72 -14 -20 31 43 37 44 37 53 16
5 -14 10 -17 13 -9z m-342 -67 c27 -7 28 -9 10 -15 -11 -5 -29 -12 -40 -17
-11 -5 -31 -8 -45 -5 -14 2 -35 5 -47 5 -14 1 -27 12 -37 33 -9 17 -16 32 -16
33 0 2 138 -25 175 -34z m406 -2 c22 -22 20 -53 -7 -109 -30 -59 -136 -129
-147 -96 -2 6 -20 -4 -41 -21 -63 -56 -113 -77 -186 -76 -68 0 -106 14 -167
60 -18 13 -37 33 -43 43 -10 18 -8 19 15 10 33 -12 88 -13 81 -1 -3 5 -22 12
-41 15 -37 7 -40 12 -26 35 8 12 14 13 36 3 41 -19 65 -15 33 6 -16 9 -28 20
-28 23 0 17 110 53 172 57 63 4 66 3 61 -16 -6 -25 28 -62 57 -62 12 0 35 -7
51 -16 17 -8 32 -14 33 -12 1 2 21 26 44 54 47 57 49 66 26 88 -8 9 -12 20 -9
26 11 17 64 11 86 -11z m-111 -34 c0 -14 -28 -25 -62 -23 -40 3 -3 37 40 38
13 0 22 -6 22 -15z m-397 -23 c3 -4 -3 -18 -14 -31 -16 -19 -20 -21 -25 -7 -3
9 -4 23 0 31 6 16 31 20 39 7z m587 -60 c0 -48 -70 -225 -123 -313 -61 -99
-80 -117 -172 -160 -172 -79 -328 -117 -429 -105 -45 6 -53 11 -65 36 -17 40
-63 71 -114 78 -32 4 -52 16 -89 53 -66 66 -91 126 -86 208 5 78 19 91 97 91
53 0 199 14 249 24 17 4 32 -5 60 -36 106 -117 263 -138 365 -47 25 21 54 39
65 39 56 0 162 73 178 122 3 12 15 18 35 18 16 0 29 -3 29 -8z m372 -208 c-9
-56 -8 -59 23 -57 17 1 44 5 60 9 27 7 29 6 16 -10 -8 -9 -12 -19 -9 -22 12
-11 60 21 79 53 17 27 27 33 48 31 20 -2 27 -9 29 -31 3 -22 -8 -39 -55 -88
-32 -33 -63 -66 -70 -74 -17 -18 -37 -101 -28 -122 6 -17 7 -17 16 0 13 22 79
24 79 2 0 -8 -9 -19 -21 -25 -26 -15 -148 -7 -158 9 -6 9 -15 9 -36 1 -16 -6
-40 -12 -54 -15 -185 -27 -366 -89 -478 -165 -25 -17 -48 -32 -53 -33 -4 -1
-25 21 -48 49 -43 54 -99 100 -109 90 -3 -3 2 -15 11 -25 17 -19 17 -21 -3
-50 -12 -16 -21 -34 -21 -40 0 -7 -19 -1 -43 12 -63 35 -100 41 -136 22 -37
-19 -46 -49 -36 -123 16 -119 13 -201 -12 -286 -13 -44 -25 -85 -27 -91 -13
-50 -17 -55 -44 -49 l-27 7 24 -27 24 -26 -48 0 c-46 0 -48 -1 -29 -14 23 -17
110 -33 205 -40 123 -8 179 -26 225 -71 23 -24 49 -63 59 -91 9 -27 28 -74 40
-105 l23 -57 -29 -6 c-42 -8 -36 -28 9 -26 73 4 72 10 5 -110 -55 -100 -76
-164 -70 -217 l4 -42 -37 27 c-43 30 -46 35 -133 182 -44 74 -72 110 -96 124
l-34 20 5 -22 c7 -26 6 -26 -111 -11 -141 18 -227 37 -278 60 -111 51 -178
168 -153 268 12 47 65 149 99 189 11 12 28 22 38 22 35 0 126 164 138 248 5
36 11 52 22 52 26 0 8 24 -40 52 -26 15 -47 25 -47 21 0 -3 -6 -1 -12 4 -13
10 -106 42 -142 49 -10 2 -33 8 -50 13 -43 12 -156 36 -321 67 -77 15 -144 30
-148 34 -19 17 26 33 89 31 51 -2 71 2 85 15 24 21 25 68 2 92 -17 16 -5 17
264 17 270 0 283 -1 310 -21 16 -12 34 -39 42 -64 12 -38 15 -41 26 -27 10 15
33 17 154 17 78 0 150 4 160 10 10 5 31 11 46 14 44 8 224 101 280 144 61 47
146 64 297 60 120 -3 130 4 153 105 9 40 22 75 28 79 18 12 32 3 29 -18z
m-2139 -125 c30 -15 167 -151 167 -165 0 -17 26 -26 95 -33 47 -5 61 -10 63
-25 6 -30 -14 -39 -93 -41 -76 -2 -100 -9 -77 -24 10 -6 4 -12 -17 -21 -27
-11 -36 -9 -77 10 -36 18 -48 20 -54 10 -6 -9 -19 -2 -49 29 -44 44 -66 49
-112 25 -17 -8 -42 -14 -57 -12 -69 8 -3 83 71 81 32 -2 37 0 27 12 -6 8 -38
26 -71 41 -33 15 -58 33 -56 38 10 30 146 6 217 -39 65 -41 69 -28 8 29 -32
30 -58 61 -58 69 0 26 38 34 73 16z m276 -165 c10 -9 -45 -3 -59 6 -11 7 -5 8
20 4 19 -4 37 -8 39 -10z m1184 -216 c43 -62 80 -171 97 -281 12 -80 4 -176
-23 -257 -6 -19 -11 -37 -12 -40 0 -3 -10 -22 -23 -43 l-22 -38 -29 20 c-40
29 -125 49 -242 57 -55 4 -102 11 -105 16 -4 6 -1 20 5 31 17 34 52 128 66
177 22 76 26 135 15 201 -25 142 -25 148 1 157 29 11 78 0 124 -27 46 -27 53
-26 65 5 8 20 40 72 46 74 1 0 18 -24 37 -52z m-885 -488 c31 -12 66 -28 77
-36 17 -13 17 -16 4 -29 -13 -13 -19 -12 -52 11 -21 14 -56 32 -79 40 -52 18
-185 18 -257 0 -69 -18 -160 -36 -208 -42 -20 -3 -54 -9 -77 -14 -23 -5 -61
-9 -86 -9 l-45 1 40 9 c22 5 72 16 110 24 39 9 115 26 170 39 142 32 323 35
403 6z m-71 -121 c24 -20 15 -47 -18 -54 -16 -4 -28 -12 -26 -18 4 -13 55 -14
102 -3 l30 8 -2 -69 c-2 -83 28 -153 87 -207 l40 -36 -64 0 c-36 0 -98 7 -138
15 -129 27 -205 76 -233 148 -19 51 -12 77 35 131 47 53 9 48 -43 -6 l-39 -41
4 -73 c5 -67 3 -73 -16 -78 -46 -12 -85 -6 -113 19 l-28 24 37 1 c20 0 43 3
52 6 31 12 15 24 -31 24 -75 0 -107 45 -62 86 16 14 23 15 26 7 7 -20 20 -16
76 21 155 100 275 135 324 95z"/>
<path d="M3174 3059 c-29 -32 -31 -130 -4 -201 12 -32 26 -58 31 -58 9 0 4 33
-12 78 -16 43 -10 112 12 143 24 34 28 35 79 10 47 -23 51 -15 12 22 -35 34
-90 37 -118 6z"/>
<path d="M3723 2663 c-15 -25 -17 -82 -3 -103 14 -23 22 7 18 71 -3 49 -4 52
-15 32z"/>
<path d="M3546 2585 c47 -54 72 -70 60 -39 -15 39 -75 94 -102 94 -3 0 16 -25
42 -55z"/>
<path d="M3825 2188 c-4 -9 -29 -31 -56 -49 -55 -35 -59 -48 -8 -26 41 18 83
61 76 79 -3 10 -7 9 -12 -4z"/>
<path d="M2260 720 c0 -5 5 -10 11 -10 5 0 7 5 4 10 -3 6 -8 10 -11 10 -2 0
-4 -4 -4 -10z"/>
<path d="M2290 722 c0 -5 7 -9 15 -9 8 0 12 4 9 9 -3 4 -9 8 -15 8 -5 0 -9 -4
-9 -8z"/>
<path d="M2340 722 c0 -5 7 -9 15 -9 8 0 12 4 9 9 -3 4 -9 8 -15 8 -5 0 -9 -4
-9 -8z"/>
</g>
</svg>
