<?xml version="1.0" standalone="no"?>
<!DOCTYPE svg PUBLIC "-//W3C//DTD SVG 20010904//EN"
 "http://www.w3.org/TR/2001/REC-SVG-20010904/DTD/svg10.dtd">
<svg version="1.0" xmlns="http://www.w3.org/2000/svg"
 width="547.000000pt" height="547.000000pt" viewBox="0 0 547.000000 547.000000"
 preserveAspectRatio="xMidYMid meet">

<g transform="translate(0.000000,547.000000) scale(0.100000,-0.100000)"
fill="#000000" stroke="none">
<path d="M2485 4385 c-104 -20 -293 -84 -386 -130 -162 -81 -230 -140 -569
-489 -103 -105 -171 -165 -233 -207 -177 -116 -432 -201 -666 -220 -69 -5
-132 -12 -138 -14 -21 -7 -15 -46 31 -227 109 -422 244 -764 386 -977 178
-265 483 -497 793 -602 96 -32 99 -34 153 -100 114 -139 306 -285 467 -354
302 -130 586 -132 873 -7 145 63 268 148 409 283 33 31 92 76 130 99 350 212
566 478 698 861 50 144 60 212 61 399 1 198 -7 249 -81 520 -93 341 -184 518
-363 704 -119 124 -219 195 -390 280 -161 80 -319 135 -475 167 -138 27 -580
36 -700 14z m-126 -1043 c159 -136 236 -188 371 -249 l95 -43 -479 0 -479 0
49 52 c73 78 144 140 215 189 59 40 158 98 168 99 3 0 30 -22 60 -48z m471
-132 c41 -32 108 -79 149 -106 74 -49 74 -49 42 -52 -26 -3 -44 6 -89 40 -99
76 -193 156 -215 185 l-22 28 30 -19 c17 -11 64 -45 105 -76z m349 -237 c16
-10 32 -27 35 -38 8 -27 7 -365 0 -392 -8 -28 -185 -148 -334 -226 -208 -110
-363 -135 -445 -73 -20 16 -58 58 -83 95 -103 146 -174 191 -284 178 -76 -9
-115 -41 -177 -145 -30 -50 -65 -96 -79 -104 -35 -18 -132 -15 -168 6 -16 10
-47 41 -68 69 l-38 52 6 92 c4 51 10 103 15 115 5 13 90 88 190 168 99 80 181
148 181 153 0 4 -23 7 -50 7 -48 0 -56 -4 -133 -67 -45 -36 -94 -77 -109 -91
-15 -14 -30 -23 -34 -20 -13 13 29 69 86 114 33 26 60 51 60 55 0 4 -14 9 -31
11 l-31 3 22 28 21 27 709 0 c654 0 711 -1 739 -17z m451 -368 c179 -18 348
-41 377 -49 72 -23 157 -102 195 -181 36 -77 39 -184 8 -269 -39 -103 -169
-203 -278 -213 -88 -8 -86 -6 -151 -122 -106 -189 -233 -339 -396 -466 -425
-330 -946 -294 -1359 95 -73 68 -236 279 -236 304 0 3 -19 45 -43 93 -56 116
-98 249 -112 361 l-7 53 29 -8 c15 -4 56 -8 90 -8 81 0 131 34 183 125 51 89
89 127 134 135 20 4 39 5 42 2 13 -13 -44 -96 -111 -161 -58 -56 -75 -79 -81
-109 -21 -117 78 -197 243 -197 46 0 63 4 63 14 0 9 -18 15 -52 19 -70 9 -154
51 -173 87 -29 55 -12 99 70 191 17 19 42 61 55 92 13 31 29 57 36 57 23 0 83
-60 140 -141 83 -118 149 -159 259 -159 111 0 311 79 509 202 179 111 216 152
216 243 0 29 4 45 13 45 6 -1 158 -16 337 -35z"/>
<path d="M1850 2749 c-124 -100 -240 -194 -258 -210 l-33 -29 27 -60 c35 -77
82 -120 132 -120 56 0 95 31 142 109 68 115 124 151 233 151 56 0 156 -32 199
-63 17 -12 57 -61 89 -108 32 -48 70 -96 85 -108 74 -58 271 10 529 182 172
115 155 85 155 262 0 104 -4 155 -12 163 -9 9 -142 12 -538 12 l-525 0 -225
-181z"/>
<path d="M3865 2387 c-56 -22 -72 -36 -95 -81 -22 -41 -23 -49 -13 -98 l11
-53 -84 -87 c-67 -69 -84 -93 -84 -117 0 -43 9 -60 42 -77 49 -26 77 -11 188
101 58 58 112 105 120 105 28 0 87 48 105 86 22 46 16 124 -12 162 -41 55
-122 82 -178 59z m133 -72 c26 -28 32 -43 32 -79 0 -55 -35 -101 -88 -116 -27
-7 -66 -38 -142 -115 -103 -103 -124 -117 -148 -93 -25 25 -10 53 79 144 l92
93 -18 37 c-59 124 99 230 193 129z"/>
<path d="M3945 2285 c-21 -20 -25 -29 -16 -38 8 -8 16 -9 28 -1 28 17 39 42
26 55 -9 9 -18 5 -38 -16z"/>
<path d="M1956 1795 c-9 -9 -16 -20 -16 -25 0 -22 125 -282 139 -289 24 -13
199 -58 253 -66 59 -8 243 12 277 30 14 7 64 44 111 82 63 50 86 75 88 95 4
33 4 33 -178 53 -239 26 -361 51 -641 131 -9 3 -24 -3 -33 -11z m254 -134 c63
-16 174 -36 245 -45 72 -10 148 -20 169 -24 l39 -7 -46 -36 c-43 -33 -55 -37
-150 -48 -107 -13 -144 -9 -293 35 -50 14 -52 16 -83 84 -36 82 -36 83 -13 76
9 -3 69 -19 132 -35z"/>
</g>
</svg>
