<svg width="1002" height="1139" viewBox="0 0 1002 1139" fill="none" xmlns="http://www.w3.org/2000/svg">
<path d="M977.082 637.473L934.244 641.673C865.856 646.898 797.495 657.81 729.631 664.359C727.941 661.609 724.631 662.059 722.626 663.973C715.854 663.38 708.265 658.204 702.126 663.588C701.926 663.56 701.726 663.527 701.526 663.508C690.604 642.545 683.054 620.186 675.726 597.797C671.049 584.032 664.757 570.707 653.126 561.465C633.282 547.69 587.814 519.757 564.513 520.931C564.145 516.626 562.178 512.614 559.001 509.685C566.039 497.685 537.901 489.857 535.913 491.248C537.185 451.16 518.328 416.348 476.748 408.363C439.493 400.601 386.51 399.301 366.476 438.226C364.276 437.978 341.763 437.861 339.584 438.105C336.198 433.816 299.008 474.458 314.25 488.605C177.979 548.889 100.494 541.701 62.776 711.165C57.676 727.085 57.305 744.506 51.921 760.071C32.764 804.801 17.227 852.433 13.36 901.101C4.02098 903.494 2.94598 919.961 13.76 922.343C17.892 923.254 21.348 924.498 24.36 926.857C22.005 966.743 31.651 1057.86 37.729 1057.58C50.123 1097.02 105.404 1108.15 144.542 1094.29C137.795 1106.98 144.542 1114.96 144.542 1121.75C285.369 1127.07 439.349 1124.01 580.137 1131.31C598.146 1131.06 617.088 1135.74 634.851 1133.04C645.684 1130.44 645.702 1113.41 634.714 1111.31L682.727 1100.88C681.654 1100.48 702.518 1086.6 718.287 1060.66C732.965 1031.65 722.975 996.635 729.626 965.079C781.57 960.831 834.374 959.015 885.75 950.218C892.755 971.177 923.079 946.111 932.717 936.028L932.681 935.981C935.065 935.311 937.175 933.902 938.708 931.957C940.241 930.013 941.117 927.632 941.212 925.157C944.483 920.483 945.17 913.895 942.033 909.378C956.411 826.41 978.333 741.698 986.255 657.95C989.08 657.347 991.714 656.063 993.93 654.21L993.749 654.029C997.538 649.805 998.275 642.514 991.958 638.929C986.866 636.03 982.612 636.929 977.082 637.473Z" fill="#FFD4B7"/>
<path d="M612.5 1138.5C593.588 1138.5 565.831 1136.65 530 1133C514.231 1131.4 481.787 1129.88 433.568 1128.5C392.727 1127.33 348.54 1126.48 316.276 1125.85H316.176C299.342 1125.52 286.046 1125.27 278.16 1125.06L275.996 1125C253.661 1124.36 231.149 1124.03 209.086 1124.03C187.023 1124.03 164.786 1124.36 142.996 1125V1098L267.996 1036L379.996 973.001L433.996 948.001L444.996 955.001L534.996 984.001L589.996 991.001L634.996 984.001V1061L643.996 1133C642.996 1134.83 639.847 1136.21 634.621 1137.13C629.395 1138.04 621.956 1138.5 612.5 1138.5ZM184.056 936.587H160.824L25.639 903.941L13.456 899.92C14.4857 887.847 16.1664 875.839 18.491 863.948C20.712 852.501 23.599 840.587 27.071 828.536C33.9237 805.22 42.2228 782.355 51.92 760.072C54.703 752.029 56.173 743.331 57.595 734.919C58.93 727.019 60.31 718.859 62.775 711.166C70.249 677.586 79.386 650.375 90.709 627.978C93.431 622.593 96.332 617.398 99.329 612.539C102.269 607.772 105.4 603.171 108.629 598.864C114.797 590.616 121.738 582.976 129.356 576.046C142.919 563.698 158.903 553.274 179.656 543.24C198.471 534.14 218.902 526.399 242.556 517.43H242.565C263.983 509.31 288.258 500.107 314.246 488.611C313.099 487.524 312.186 486.215 311.56 484.765C310.935 483.314 310.61 481.751 310.607 480.172C310.605 476.484 311.353 472.835 312.807 469.447C315.424 462.78 320.407 454.954 326.484 447.976C328.742 445.331 331.207 442.872 333.856 440.62C336.1 438.769 337.823 437.791 338.838 437.791C338.978 437.781 339.118 437.805 339.248 437.86C339.377 437.914 339.492 437.999 339.583 438.106L339.796 438.087L340.258 438.063L340.852 438.042C342.413 437.997 345.247 437.971 348.832 437.971C356.105 437.971 365.139 438.076 366.474 438.227C367.592 436.052 368.847 433.95 370.229 431.934L378.496 438.106L360.449 467.756L448.362 538.867L448.362 595.667L476.194 621.992L492.102 595.667L514.519 565.856L530.45 517.534L525.026 485.694L535.934 484.666C535.987 486.835 535.978 489.05 535.908 491.249C536.188 491.115 536.499 491.06 536.808 491.089C538.754 491.089 543.324 492.147 547.962 494.107C550.265 495.053 552.463 496.236 554.521 497.637C556.375 498.837 557.945 500.428 559.121 502.299C559.799 503.416 560.147 504.702 560.126 506.009C560.105 507.315 559.716 508.59 559.002 509.685C562.186 512.611 564.155 516.625 564.521 520.934C564.999 520.91 565.49 520.898 565.979 520.898C571.513 520.898 578.538 522.392 586.859 525.34C595.189 528.391 603.306 531.994 611.156 536.125C618.621 539.975 626.526 544.454 634.651 549.439C642.851 554.472 649.232 558.76 653.137 561.47C658.771 566.032 663.489 571.62 667.042 577.94C670.599 584.252 673.511 590.906 675.734 597.802L676.834 601.16L677.972 604.607L679.117 608.052C685.14 626.071 692.023 645.262 701.532 663.513C701.681 663.527 701.832 663.55 701.97 663.57H701.996L702.132 663.59C703.94 661.977 706.293 661.11 708.716 661.165C711.32 661.305 713.894 661.791 716.37 662.612C718.411 663.254 720.505 663.71 722.628 663.975C723.603 663.013 724.908 662.457 726.277 662.42C726.921 662.411 727.557 662.568 728.123 662.875C728.689 663.182 729.167 663.629 729.512 664.174L729.633 664.361L645.256 680.985L589.596 876.229L541.126 836.883L515.108 840.753L446.398 865.534L366.486 886.291L184.056 936.587Z" fill="#D1001F"/>
<path d="M568.455 984.445C574.131 962.963 578.513 945.293 582.248 928.836C583.654 922.636 585.061 916.336 586.421 910.248V910.234C589.676 895.661 593.042 880.592 596.637 865.834C606.69 824.559 618.264 782.292 631.037 740.208C633.661 731.563 636.392 722.781 639.156 714.108L641.097 708.039L642.591 703.203C643.659 699.485 645.1 695.884 646.891 692.454C648.656 689.064 651.298 686.208 654.542 684.185C657.83 682.307 661.378 680.925 665.071 680.085C668.839 679.145 672.764 678.529 676.561 677.933C678.561 677.619 680.446 677.323 682.292 676.986L688.386 675.841C697.458 674.148 706.671 672.497 715.769 670.932C759.33 663.439 803.716 657.35 847.695 652.832C870.465 650.494 893.695 648.525 916.739 646.981C939.577 645.45 962.862 644.294 985.95 643.545L990.567 643.4L988.054 657.4C987.461 657.594 986.849 657.761 986.233 657.9C985.467 666 984.533 674.434 983.467 682.972L967.886 769.811C965.115 785.651 962.528 801.3 960.115 815.971L956.759 832.515L954.682 842.8C950.45 863.8 945.982 886.4 942.012 909.331C942.583 910.158 943.038 911.059 943.363 912.01L943.069 913.254L942.869 914.084L942.659 914.903C941.926 917.8 941.005 920.645 939.901 923.421C938.837 926.124 937.477 928.701 935.847 931.105C934.253 933.454 932.292 935.53 930.038 937.254C927.635 939.053 924.913 940.38 922.016 941.166C915.075 943.08 907.568 943.705 900.308 944.309C897.831 944.515 895.271 944.728 892.801 944.989L891.733 945.105L723.069 964.072C705.32 966.072 686.469 968.238 661.953 971.109L644.3 973.18C640.047 973.673 635.718 974.155 631.532 974.621L631.482 974.627C611.448 976.859 590.732 979.167 570.691 983.427C569.881 983.591 569.119 983.937 568.462 984.439L568.455 984.445ZM818.5 762.557C817.944 762.546 817.393 762.661 816.888 762.892C816.383 763.124 815.936 763.468 815.583 763.897C815.229 764.325 814.977 764.829 814.845 765.369C814.714 765.909 814.706 766.472 814.823 767.015L814.941 767.615C815.588 771.221 815.179 774.937 813.764 778.315C812.348 781.704 810.26 784.77 807.625 787.328C805.945 788.864 804.118 790.229 802.17 791.405C798.626 793.72 794.961 796.115 793.576 800.048C792.99 801.65 792.952 803.401 793.469 805.026C793.993 806.606 794.925 808.02 796.169 809.126L795.589 809.412L795.022 809.702L794.468 809.995L793.928 810.295L793.402 810.595C790.786 812.044 788.393 813.865 786.3 816C784.377 817.895 783.04 820.303 782.448 822.936C781.811 826.295 782.872 829.729 785.602 833.145C787.352 835.304 789.48 837.125 791.882 838.521C794.348 839.947 796.988 841.05 799.735 841.803C805.464 843.292 811.369 843.993 817.287 843.887C819.858 843.887 822.553 843.787 825.524 843.593L826.392 843.533C835.877 842.822 852.915 839.71 860.459 826.864C861.984 824.341 862.685 821.405 862.465 818.464C862.214 815.522 860.951 812.758 858.893 810.64C856.419 808.052 851.75 805.112 847.345 804.769C847.572 802.492 847.247 800.194 846.398 798.069C845.421 795.917 843.805 794.118 841.77 792.915C839.729 791.649 837.39 790.942 834.989 790.866C835.145 787.166 834.037 783.16 831.598 778.625C829.369 774.729 826.862 770.998 824.098 767.461C823.682 766.903 823.252 766.326 822.836 765.761L822.294 765.022L821.767 764.296C821.402 763.765 820.914 763.328 820.345 763.025C819.776 762.721 819.142 762.559 818.497 762.551L818.5 762.557ZM566.08 983.34C564.954 982.573 563.616 982.178 562.254 982.208H561.954C551.739 982.099 541.58 980.69 531.721 978.016C521.847 975.34 512.126 972.13 502.6 968.4L499.682 967.288L491.548 964.161C484.054 961.29 475.32 958.003 466.497 955.326L463.074 954.3L461.334 953.786C455.409 952.056 448.42 950.228 441.509 949.786L440.6 949.735L442.542 948.716C442.809 948.575 443.062 948.407 443.296 948.216C444.627 948.316 445.873 948.362 447.107 948.362C449.591 948.37 452.071 948.154 454.517 947.715C461.821 946.388 468.866 943.899 475.383 940.344L478.283 938.771L479.472 938.14L480.258 937.732L481.039 937.338C483.051 936.3 485.15 935.439 487.311 934.763C489.476 934.099 491.728 933.759 493.993 933.752C495.681 933.757 497.364 933.938 499.014 934.293C505.438 935.645 511.314 938.737 516.991 941.726C518.385 942.46 519.825 943.218 521.248 943.937L522.529 944.575L523.389 944.991L524.266 945.404L525.154 945.81C531.871 948.832 537.608 950.364 542.205 950.364C548.525 950.364 552.554 947.44 554.181 941.672C555.562 936.772 554.794 931.831 551.899 926.972C552.075 926.957 552.253 926.95 552.428 926.95C554.928 926.95 558.266 928.312 561.803 929.75C565.265 931.161 568.844 932.62 571.947 932.932L572.377 932.967L566.077 983.327L566.08 983.34ZM816.9 836.881C812.858 836.936 808.82 836.609 804.84 835.906C801.007 835.282 797.346 833.865 794.092 831.745C791.321 829.845 789.712 827.568 789.438 825.165C789.355 824 789.53 822.831 789.952 821.742C790.374 820.652 791.032 819.67 791.879 818.865C794.224 816.313 796.647 813.676 799.16 811.11C800.527 811.784 802.031 812.136 803.555 812.14C805.794 812.05 807.988 811.486 809.993 810.486C810.088 810.445 810.165 810.371 810.21 810.278C810.255 810.185 810.265 810.078 810.238 809.978C810.217 809.857 810.156 809.746 810.064 809.664C809.973 809.582 809.856 809.533 809.733 809.525C808.688 809.525 806.279 808.575 804.007 807.267C802.751 806.545 799.807 804.697 799.572 803.146C799.261 801.078 802.631 799.32 804.86 798.156H804.867C805.111 798.029 805.342 797.908 805.549 797.797L805.849 797.633L806.109 797.482C808.276 796.17 810.307 794.646 812.172 792.931C816.862 788.728 820.22 783.243 821.829 777.153L821.96 776.609L826.801 794.742L826.717 794.891C826.45 795.399 826.322 795.968 826.345 796.541C826.369 797.115 826.543 797.671 826.851 798.155C827.172 798.706 827.627 799.167 828.173 799.495C828.72 799.823 829.34 800.008 829.977 800.032C830.382 800.03 830.782 799.944 831.152 799.781C831.523 799.618 831.856 799.381 832.132 799.084L832.399 798.797C832.721 798.44 833.114 798.154 833.553 797.958C833.992 797.761 834.467 797.658 834.948 797.654C835.666 797.7 836.367 797.891 837.009 798.215C837.652 798.538 838.222 798.989 838.686 799.538C839.706 800.569 840.326 801.929 840.435 803.374C840.465 805.68 839.772 807.937 838.453 809.828C837.151 811.691 835.493 813.278 833.574 814.495L833.309 814.667L832.609 815.1C832.044 815.429 831.607 815.939 831.368 816.547C831.129 817.156 831.102 817.827 831.293 818.452C831.519 819.177 831.971 819.81 832.583 820.26C833.195 820.71 833.934 820.952 834.693 820.952C834.883 820.952 835.072 820.937 835.26 820.908C839.145 820.313 842.717 817.338 845.06 812.744C845.878 812.961 846.708 813.131 847.545 813.252C849.208 813.433 850.826 813.909 852.323 814.657C853.169 815.042 853.907 815.63 854.471 816.37C855.034 817.109 855.406 817.976 855.553 818.894C855.652 820.502 855.228 822.099 854.344 823.445C853.422 824.963 852.28 826.335 850.956 827.517L850.796 827.66L850.476 827.939C846.844 830.944 842.627 833.162 838.092 834.45C833.56 835.755 828.887 836.506 824.174 836.689L823.64 836.713C821.815 836.79 819.39 836.881 816.9 836.881Z" fill="white"/>
<path d="M644.108 1137.59C643.584 1137.59 643.067 1137.48 642.588 1137.27C642.109 1137.06 641.68 1136.75 641.329 1136.36C639.522 1134.39 638.19 1132.03 637.436 1129.47C636.703 1126.91 636.165 1124.3 635.826 1121.65V1121.65V1121.63C635.692 1120.77 635.554 1119.87 635.403 1118.99C634.349 1112.82 633.394 1106.42 632.482 1099.41C630.565 1084.68 629.511 1072.55 629.165 1061.24C628.765 1048.21 628.919 1034.98 629.624 1021.93C629.968 1015.56 630.407 1008.73 631.29 1001.81C631.696 998.63 632.049 995.96 632.451 993.273C632.601 992.273 632.768 991.258 632.963 990.173L622.152 991.393C606.319 993.16 589.427 994.908 572.296 995.174H572.2C571.346 995.184 570.502 994.991 569.738 994.612C568.973 994.233 568.309 993.678 567.8 992.992C567.224 993.927 566.411 994.693 565.442 995.211C564.474 995.728 563.385 995.98 562.288 995.94H562.256C538.469 995.852 516.368 987.864 496.029 979.246C490.945 977.091 485.819 974.816 480.861 972.616L480.84 972.607C475.375 970.182 469.723 967.674 464.115 965.321C459.995 963.592 455.686 962.042 451.515 960.543C445.453 958.48 439.502 956.101 433.689 953.416L408.069 966.855C407.405 969.252 405.915 971.337 403.861 972.74C402.372 973.784 400.763 974.646 399.068 975.306C396.637 976.317 394.031 976.836 391.398 976.834C390.681 976.834 389.965 976.796 389.252 976.722C365.822 988.999 347.838 998.407 330.939 1007.22L311.486 1017.36C300.238 1023.22 288.909 1029.15 277.954 1034.89C250.875 1049.07 222.874 1063.74 195.126 1077.75L192.255 1079.2C179.699 1085.5 164.785 1092.64 149.37 1097.91C149.155 1101.73 149.228 1105.57 149.59 1109.38L149.666 1110.25C149.7 1110.62 149.737 1110.98 149.775 1111.36V1111.4C150.086 1113.71 150.162 1116.05 150.002 1118.37C149.884 1120.62 148.904 1122.74 147.267 1124.28C146.362 1125.07 145.202 1125.51 144.001 1125.51C143.266 1125.53 142.538 1125.35 141.903 1124.98C141.269 1124.6 140.755 1124.06 140.421 1123.4C139.472 1121.26 139.097 1118.92 139.334 1116.59C139.522 1114.07 139.873 1111.56 140.383 1109.09C140.595 1107.94 140.795 1106.85 140.945 1105.85C141.203 1103.96 141.57 1102.09 142.045 1100.25C135.998 1102.07 129.844 1103.51 123.619 1104.57C117.466 1105.61 111.238 1106.15 104.998 1106.17C99.9109 1106.18 94.8315 1105.77 89.81 1104.96C85.674 1104.27 81.6335 1103.1 77.773 1101.47C74.0059 1099.86 70.4134 1097.87 67.052 1095.53C63.6697 1093.17 60.4842 1090.54 57.527 1087.67C54.5259 1084.75 51.7044 1081.65 49.078 1078.39C43.5069 1071.51 38.7112 1064.04 34.778 1056.11C30.849 1048.17 27.7954 1039.84 25.671 1031.24C23.3327 1021.45 21.863 1011.47 21.279 1001.42C20.601 991.294 20.558 980.93 20.613 971.239C20.681 959.339 20.951 948.825 21.441 939.091C22.019 927.591 22.899 917.108 24.13 907.05C21.6103 906.399 19.0254 906.033 16.424 905.959C16.016 905.959 15.614 905.972 15.23 905.999C14.6119 906.973 13.7339 907.755 12.695 908.256C11.6745 908.75 10.5548 909.005 9.42099 909.001C9.12321 909.001 8.8257 908.983 8.52999 908.948C8.0243 909.433 7.65402 910.041 7.45581 910.713C7.25761 911.385 7.23836 912.096 7.39999 912.778C7.90699 914.767 9.95699 916.85 13.491 918.969C15.9737 920.432 18.5898 921.655 21.304 922.622C21.6605 922.754 21.9589 923.008 22.1461 923.339C22.3333 923.67 22.3974 924.056 22.327 924.43C22.2873 924.754 22.127 925.052 21.878 925.263C21.6289 925.475 21.3094 925.584 20.983 925.571H20.906L19.793 925.518C12.863 925.149 5.90099 923.941 1.92399 917.655C0.407173 915.298 -0.242605 912.486 0.0859928 909.702C0.431127 906.978 1.63293 904.433 3.51799 902.436C5.78299 881.018 10.952 859.765 15.95 839.212L15.982 839.081C16.553 836.732 17.144 834.303 17.72 831.914C22.839 810.686 28.783 788.352 35.892 763.637L38.81 753.508C43.745 736.417 49.11 718.144 54.9 700.308C61.252 680.74 67.469 663.684 73.907 648.166C77.882 638.584 81.683 630.375 85.527 623.066C89.7751 614.879 94.6542 607.035 100.12 599.605C105.213 592.753 110.83 586.306 116.92 580.322C123.02 574.348 129.555 568.836 136.471 563.831C148.193 555.331 161.847 547.631 178.214 540.291C192.639 533.821 207.601 528.301 222.938 522.749L224.28 522.264C239.21 516.864 255.161 511.018 270.658 504.873C277.676 502.091 284.658 498.873 291.401 495.76C297.708 492.85 304.23 489.842 310.761 487.201C310.315 486.391 309.887 485.577 309.489 484.783L309.24 484.994H309.235C309.196 485.024 309.155 485.055 309.113 485.084C308.604 485.426 308.002 485.604 307.388 485.594C306.367 485.581 305.387 485.194 304.633 484.506C303.958 483.943 303.427 483.227 303.084 482.418C302.742 481.608 302.598 480.728 302.665 479.852C302.913 478.13 303.597 476.499 304.652 475.115L304.928 474.721C306.897 471.963 308.728 469.039 310.507 466.211C311.029 465.38 311.62 464.438 312.196 463.532L313.689 461.187C317.605 455.057 321.875 448.638 327.225 443.447C329.577 441.167 332.295 439.298 335.265 437.918C335.248 437.873 335.243 437.824 335.251 437.776C335.259 437.728 335.279 437.684 335.309 437.646C335.824 437.096 336.532 436.767 337.284 436.728C337.461 436.715 337.636 436.767 337.778 436.874C343.024 435.101 348.542 434.265 354.078 434.406C358.626 434.406 363.232 434.797 367.192 435.164L369.079 429.173C369.775 427.284 371.021 425.648 372.655 424.473C374.05 423.511 375.705 422.998 377.4 423.002C379.309 423.003 381.165 423.63 382.684 424.787C384.203 425.944 385.3 427.567 385.808 429.407C386.202 430.861 386.286 432.381 386.055 433.87C385.123 440.405 381.692 447.189 378.122 453.548C375.843 457.606 372.657 462.757 368.211 466.595C375.611 473.495 383.334 480.185 391.167 486.467C399.779 493.347 408.785 499.718 418.139 505.548C420.665 507.127 423.266 508.674 425.781 510.17C431.588 513.482 437.207 517.113 442.612 521.046C446.238 523.723 449.578 526.767 452.58 530.13C455.59 533.488 457.986 537.349 459.66 541.536C461.33 545.923 462.015 550.624 461.665 555.305C461.31 559.976 460.434 564.593 459.053 569.069L458.753 570.095C458.438 571.155 458.105 572.214 457.753 573.335C455.16 581.576 452.222 590.917 457.871 598.392C460.246 601.534 463.44 604.035 466.529 606.453C467.67 607.346 468.848 608.269 469.959 609.205C473.599 612.268 477.001 615.603 480.138 619.18C487.039 626.894 492.425 635.837 496.017 645.544L496.33 646.432C497.973 650.93 499.054 655.613 499.548 660.376C500.105 665.088 499.387 669.862 497.47 674.202C497.254 674.661 496.908 675.046 496.474 675.31C496.041 675.574 495.54 675.704 495.033 675.686C494.343 675.7 493.667 675.493 493.103 675.095C492.539 674.697 492.118 674.129 491.9 673.474C491.178 670.55 490.681 667.574 490.413 664.574C490.167 662.036 489.785 659.513 489.266 657.016C487.954 651.372 485.86 645.938 483.045 640.873C477.602 631.126 470.344 622.511 461.661 615.494L459.07 613.387C455.69 610.758 452.612 607.762 449.892 604.455C447.184 601.09 445.41 597.071 444.749 592.802C443.576 584.956 445.88 577.328 448.108 569.95L448.114 569.93C448.665 568.104 449.235 566.216 449.739 564.365C451.747 556.991 451.884 551.106 450.173 545.846C448.361 548.655 446.37 551.345 444.212 553.898C443.493 554.787 442.812 555.627 442.166 556.456C438.279 561.435 434.32 566.446 430.491 571.292L429.973 571.948L427.094 575.593C421.382 582.832 416.482 589.37 412.114 595.579C409.806 598.862 407.595 602.062 405.738 604.759C404.871 606.017 403.798 607.299 402.759 608.538L402.754 608.545C401.885 609.582 400.987 610.654 400.201 611.721C400.44 612.329 400.531 612.985 400.466 613.635C400.401 614.285 400.183 614.91 399.828 615.459C398.197 617.659 396.338 618.779 394.3 618.78C390.883 618.78 386.914 615.68 382.5 609.555C379.49 605.212 376.792 600.662 374.426 595.937L374.235 595.57L374.164 595.434C370.712 588.807 367.65 581.864 364.689 575.149C361.689 568.357 358.597 561.335 355.096 554.637C347.882 540.771 339.664 527.451 330.508 514.783C328.408 511.895 326.183 509.031 324.029 506.261C320.496 501.717 316.843 497.019 313.694 492.128C307.555 497.531 300.81 502.203 293.594 506.05C286.135 510.17 278.094 513.838 271.632 516.785H271.624C259.303 522.403 246.408 527.299 233.937 532.034L233.912 532.043C230.348 533.396 226.662 534.796 223.049 536.189L218.249 538.054C202.443 544.223 189.293 549.643 176.491 556.047C161.343 563.624 148.844 571.591 138.279 580.403C131.544 586.047 125.341 592.297 119.748 599.075C114.224 605.791 109.21 612.911 104.748 620.375C100.267 627.872 96.2167 635.617 92.617 643.575C89.207 651.042 85.962 659.01 82.697 667.935C76.206 685.676 69.923 704.482 63.489 725.429C58.189 742.698 52.837 761.205 46.661 783.672C41.142 803.745 35.911 823.918 31.113 843.631C29.645 849.663 28.239 855.816 26.879 861.768V861.786C24.258 873.261 21.547 885.127 18.269 896.641C18.713 896.625 19.159 896.618 19.592 896.618C25.769 896.618 32.25 898.035 38.518 899.405C42.097 900.187 45.476 900.926 48.51 901.323C69.674 904.094 88.78 907.488 106.919 911.699C116.745 913.98 126.381 916.536 135.56 919.299C145.195 922.199 154.66 925.415 163.682 928.868C164.694 929.232 165.619 929.801 166.402 930.539C167.184 931.276 167.806 932.167 168.23 933.155C168.989 934.979 169.116 937.004 168.592 938.909L171.754 938.009L171.872 937.975C173.523 937.506 175.013 937.084 176.519 936.661C174.161 933.048 174.638 927.135 175.019 922.383C175.106 921.305 175.188 920.283 175.23 919.373L175.244 919.035C175.398 914.725 175.763 910.349 176.117 906.116V906.094C176.301 903.894 176.491 901.617 176.648 899.382C177.578 886.165 178.736 873.982 180.189 862.137L180.577 859.037C181.311 853.291 181.977 847.437 182.613 841.785V841.777C183.477 834.143 184.371 826.248 185.45 818.517L185.672 816.975C184.889 813.981 183.948 810.824 182.621 806.739C180.57 800.428 177.882 794.273 175.284 788.319C174.166 785.759 173.011 783.113 171.917 780.478C171.857 780.354 171.831 780.216 171.84 780.079C171.85 779.941 171.894 779.808 171.97 779.693C172.083 779.543 172.229 779.423 172.398 779.341C172.566 779.26 172.752 779.219 172.939 779.224C173.195 779.219 173.445 779.308 173.639 779.475C176.714 782.275 179.497 785.378 181.948 788.737C184.413 792.113 186.632 795.661 188.589 799.355C188.619 799.205 188.647 799.055 188.675 798.904C188.709 798.721 188.748 798.514 188.788 798.315L189.235 796.115C190.348 790.703 191.707 785.056 194.977 780.733C195.062 780.617 195.171 780.522 195.298 780.456C195.425 780.389 195.566 780.353 195.709 780.349C195.841 780.349 195.971 780.385 196.084 780.452C196.198 780.52 196.291 780.617 196.354 780.733C197.795 783.292 198.776 786.084 199.254 788.982C199.749 791.901 200.086 794.845 200.264 797.8C200.293 798.171 200.322 798.538 200.351 798.9C200.971 806.654 200.945 814.437 200.872 819.616C200.721 830.39 200.072 841.353 199.447 851.955C199.3 854.443 199.133 857.264 198.978 860.021C198.3 872.099 196.967 884.964 194.903 899.348L194.546 901.801C194.299 903.481 194.059 905.196 193.827 906.854V906.867C193.199 911.361 192.551 916.002 191.668 920.51L191.326 922.193C191.126 923.144 190.949 924.216 190.762 925.351C190.403 928.005 189.811 930.623 188.993 933.173C220.656 924.342 254.159 915.208 288.573 906.025C305.64 901.47 322.998 896.89 339.784 892.46C346.63 890.654 353.709 888.786 360.711 886.935C361.997 884.598 363.622 882.464 365.532 880.602C367.553 878.606 369.887 876.955 372.441 875.714C374.829 874.544 377.448 873.922 380.107 873.894C383.091 873.906 386.012 874.756 388.537 876.346C388.696 876.446 388.825 876.586 388.913 876.752C389.001 876.918 389.043 877.104 389.037 877.291C389.036 877.463 388.99 877.631 388.902 877.778C388.814 877.925 388.688 878.046 388.537 878.128C386.753 879.103 385.317 879.917 384.019 880.688L398.459 876.777C401.641 875.915 404.894 874.972 408.04 874.059H408.053C415.615 871.866 423.435 869.599 431.221 868.159C451.172 858.314 472.756 851.081 493.631 844.087L494.887 843.666L497.413 842.812C498.873 842.312 500.394 841.79 501.736 841.327C511.315 838.027 521.221 834.611 531.078 832.807C532.805 832.489 534.558 832.327 536.314 832.324C539.646 832.257 542.947 832.982 545.944 834.441C548.935 835.94 551.259 838.502 552.461 841.624C556.647 844.485 560.666 847.583 564.5 850.901C566.458 852.543 568.39 854.286 570.258 855.971L570.282 855.993C571.053 856.693 571.85 857.407 572.638 858.109L573.138 858.546L573.628 858.968L573.648 858.985C575.6 860.662 577.142 861.985 577.642 864.801C577.721 865.274 577.699 865.758 577.578 866.222C577.458 866.686 577.241 867.12 576.942 867.495C576.739 867.751 576.48 867.957 576.186 868.099C575.891 868.241 575.569 868.315 575.242 868.315C575.154 868.315 575.067 868.31 574.98 868.301C570.224 867.792 566.22 863.33 562.686 859.393C561.802 858.408 560.966 857.477 560.157 856.651C556.637 853.051 553.741 849.984 551.05 846.675C550.431 847.016 549.737 847.197 549.03 847.201C548.417 847.217 547.811 847.058 547.285 846.741C546.759 846.425 546.334 845.965 546.061 845.416C545.142 843.587 543.665 842.098 541.844 841.163C540.066 840.328 538.118 839.92 536.155 839.972C531.341 839.972 525.776 841.861 521.304 843.379H521.298C519.857 843.868 518.498 844.33 517.285 844.689L505.395 848.208C500.465 849.669 493.985 851.596 487.576 853.543C481.596 855.359 475.542 857.281 469.688 859.143C459.53 862.368 449.026 865.702 438.595 868.586C438.971 868.995 439.241 869.489 439.384 870.025C439.526 870.562 439.536 871.125 439.413 871.666C439.261 872.246 438.968 872.78 438.559 873.218C438.149 873.656 437.637 873.986 437.069 874.177C427.717 877.846 417.592 880.256 407.801 882.587H407.787C404.127 883.458 400.343 884.359 396.687 885.307C388.313 887.478 379.787 889.707 371.358 891.919C369.825 894.378 368.828 897.132 368.432 900.002C367.721 905.946 367.897 911.962 368.954 917.854C369.958 923.782 371.293 929.648 372.954 935.426L373.409 937.064C374.664 941.807 376.322 946.434 378.366 950.894C380.856 956.045 383.736 959.771 387.166 962.284C389.105 963.7 391.388 964.57 393.778 964.803C408.932 957.003 423.755 949.373 438.506 941.803C439.095 941.49 439.75 941.324 440.417 941.317C441.35 941.358 442.245 941.699 442.97 942.288C443.694 942.877 444.211 943.683 444.442 944.588C449.633 943.721 454.745 942.435 459.728 940.743C464.354 938.998 468.776 936.755 472.917 934.053C475.682 932.384 478.539 930.66 481.556 929.218C485.158 927.485 489.109 926.598 493.107 926.626C498.062 926.745 502.954 927.757 507.55 929.611C512.258 931.474 516.863 933.59 521.343 935.95C522.231 936.398 523.148 936.86 524.043 937.304L527.048 938.781C531.048 940.722 536.895 943.302 541.469 943.302C544.759 943.302 546.913 941.959 547.869 939.31C548.508 937.489 548.557 935.513 548.01 933.663C547.432 931.723 546.499 929.907 545.26 928.306C542.833 925.156 539.851 922.477 536.46 920.399C533.125 918.412 529.585 916.793 525.9 915.571C522.007 914.231 518.051 913.225 514.7 912.418C510.344 911.37 506 910.537 501.78 909.944C500.21 909.723 498.597 909.581 497.037 909.444C493.646 909.279 490.287 908.713 487.029 907.759C486.445 907.541 485.946 907.142 485.604 906.62C485.262 906.099 485.096 905.482 485.129 904.859C485.139 904.323 485.333 903.807 485.679 903.398C486.026 902.988 486.502 902.711 487.029 902.612C489.112 902.159 491.238 901.94 493.369 901.958C498.958 901.958 504.979 903.234 510.653 904.614L514.634 905.595C521.076 907.176 529.444 909.514 537.042 913.595C539.727 915.04 542.262 916.748 544.609 918.695C547.037 920.683 549.184 922.991 550.992 925.556C552.682 923.976 554.928 923.129 557.24 923.199C558.772 923.227 560.294 923.454 561.768 923.874L563.909 924.469C566.19 925.205 568.56 925.625 570.955 925.719C571.895 925.72 572.833 925.628 573.755 925.444C574.197 923.044 574.676 920.465 575.181 917.933C580.194 892.763 585.649 868.026 591.394 844.41C596.46 823.585 602.027 802.469 607.938 781.65C613.786 761.05 620.138 740.164 626.819 719.556L628.159 715.439C628.846 713.339 629.516 711.151 630.164 709.039L630.171 709.018C632.461 701.548 634.828 693.824 638.68 687.108C640.912 683.208 643.982 679.851 647.667 677.28C651.379 674.751 655.494 672.87 659.835 671.717C667.506 669.719 675.271 668.106 683.103 666.884L683.136 666.878C685.715 666.432 688.381 665.97 690.98 665.489C692.36 665.234 693.795 664.978 695.062 664.751C695.996 664.584 696.962 664.411 697.912 664.239C696.527 661.616 695.297 658.914 694.227 656.147C693.866 655.262 693.527 654.43 693.191 653.647L692.961 653.115C689.887 646.106 687.178 638.984 685.161 633.563L683.331 628.617C679.116 617.249 674.472 605.2 668.146 593.851C664.939 588.097 661.108 582.715 656.721 577.802C652.322 572.907 647.425 568.483 642.11 564.602C631.82 557.048 620.355 551.126 609.268 545.402C602.941 542.134 596.4 538.755 590.146 535.108C583.84 531.5 577.819 527.415 572.134 522.891C572.001 522.796 571.902 522.66 571.853 522.504C571.804 522.348 571.808 522.18 571.863 522.026C571.942 521.824 572.079 521.649 572.257 521.525C572.435 521.4 572.646 521.331 572.863 521.326C573.005 521.327 573.144 521.361 573.27 521.426C583.357 526.495 594.17 530.49 604.625 534.354H604.63C609.13 536.016 613.776 537.734 618.295 539.511L621.257 540.679C632.857 545.279 645.045 550.408 655.443 558.118C661.08 562.292 666.236 567.078 670.818 572.389C675.384 577.716 679.364 583.519 682.689 589.697C688.136 599.778 692.019 610.943 695.774 621.74V621.749C696.615 624.167 697.484 626.667 698.353 629.1L699.613 632.619C701.426 637.647 703.421 643.025 705.728 648.288C706.447 649.928 707.402 651.637 708.414 653.447C709.988 656.058 711.31 658.813 712.362 661.674L713.19 661.53L713.224 661.524C717.017 660.866 720.939 660.185 724.8 659.54C747.151 655.808 769.887 652.413 792.376 649.448C814.847 646.486 837.684 643.872 860.253 641.681C882.822 639.49 905.726 637.661 928.353 636.244C950.98 634.827 973.944 633.783 996.608 633.144H996.762C997.431 633.13 998.094 633.267 998.702 633.544C999.311 633.821 999.849 634.231 1000.28 634.744C1000.81 635.411 1001.2 636.186 1001.41 637.015C1001.62 637.844 1001.64 638.709 1001.49 639.55C996.564 668.676 991.878 698.295 987.346 726.939L987.336 727C983.818 749.233 980.181 772.224 976.459 794.809C972.659 817.86 968.826 840.629 965.059 862.484C964.217 867.37 963.307 872.316 962.427 877.1C961.244 883.527 960.022 890.169 958.954 896.723C958.633 898.697 958.325 900.707 958.028 902.652L958.017 902.724C957.06 909.996 955.644 917.201 953.777 924.294C951.102 933.64 947.277 940.858 942.07 946.36C938.941 949.601 935.203 952.192 931.07 953.983C926.939 955.771 922.602 957.039 918.158 957.757C902.598 960.435 886.519 962.038 870.969 963.588C864.109 964.272 857.018 964.979 850.077 965.769L729.63 979.469C730.484 987.233 730.976 995.05 731.13 1003.37C731.275 1010.96 731.137 1018.82 730.709 1027.4L730.249 1036.24C729.889 1043.03 729.449 1050.27 728.402 1057.5C727.78 1061.77 726.469 1065.92 724.521 1069.78C722.544 1073.62 720.062 1077.19 717.141 1080.38C711.884 1086.21 705.633 1091.15 698.599 1096.55C692.477 1101.25 685.262 1106.53 677.112 1109.82L676.09 1110.22C672.37 1111.68 668.567 1112.92 664.701 1113.92C660.287 1115.14 655.739 1115.8 651.162 1115.9C649.697 1115.91 648.234 1115.8 646.786 1115.57C647.024 1116.77 647.311 1118 647.586 1119.19C648.772 1124.3 649.998 1129.58 648.286 1134.52C647.971 1135.42 647.39 1136.19 646.622 1136.75C645.891 1137.28 645.013 1137.58 644.108 1137.59ZM723.808 980.129L711.188 981.564C696.388 983.249 681.821 984.845 669.523 986.185L639.351 989.464C639.313 990.314 639.244 991.138 639.177 991.934V991.942C639.11 992.742 639.046 993.507 639.027 994.164C638.827 1001.12 638.67 1008.18 638.544 1014.26C638.267 1027.62 638.573 1041.16 639.455 1054.53C640.449 1069.61 641.637 1081.96 643.194 1093.41L643.553 1095.99L643.761 1097.34C644.542 1097.43 645.299 1097.67 645.986 1098.05C646.674 1098.43 647.279 1098.94 647.767 1099.56C648.507 1100.44 649.877 1100.89 651.841 1100.89C655.327 1100.89 659.925 1099.51 663.169 1098.36C669.209 1096.21 674.991 1092.47 679.85 1089.1C684.83 1085.56 689.491 1081.59 693.779 1077.24L697.345 1073.71C700.827 1070.25 704.412 1066.5 706.616 1062C709.046 1057.04 709.724 1051.21 710.381 1045.57C710.516 1044.41 710.656 1043.21 710.808 1042.06C711.74 1035.01 712.908 1027.35 714.478 1017.94L723.809 980.132L723.808 980.129ZM25.717 907.448L25.662 920.556C25.596 938.389 25.611 957.378 26.573 976.234L26.753 979.673C27.832 999.858 29.506 1021.21 36.913 1040.89C39.9099 1048.87 43.7701 1056.5 48.425 1063.64C53.0644 1070.79 58.5572 1077.34 64.782 1083.16C67.8219 1086.04 71.1447 1088.61 74.7 1090.82C78.2634 1093.02 82.1265 1094.69 86.169 1095.78C91.6677 1097.19 97.3295 1097.88 103.007 1097.8C105.249 1097.8 107.542 1097.72 110.016 1097.55C143.136 1095.24 173.116 1079.33 202.116 1063.95H202.121C206.508 1061.62 211.045 1059.22 215.481 1056.92C267.44 1030.02 322.827 1001.35 378.493 972.672C377.009 971.659 375.631 970.499 374.38 969.209C368.262 962.889 363.92 954.049 360.717 941.387C357.977 930.598 356.472 919.531 356.232 908.402L357.451 895.586L356.142 895.931C342.603 899.531 328.87 903.21 315.589 906.769C282.14 915.735 247.552 925.006 213.414 933.651C199.809 937.096 185.943 940.451 172.534 943.697C162.673 946.083 152.476 948.551 142.461 951.035L138.635 951.993C120.312 956.623 101.22 962.283 86.846 975.899C86.745 976 86.6088 976.058 86.466 976.06C86.352 976.056 86.2416 976.02 86.1475 975.955C86.0535 975.891 85.9798 975.801 85.935 975.696C85.8914 975.597 85.8791 975.487 85.8996 975.381C85.9202 975.275 85.9726 975.177 86.05 975.102C93.001 967.702 101.843 961.635 113.082 956.551C123.263 951.951 134.103 948.703 144.333 945.777C146.471 945.166 148.647 944.552 150.751 943.958L150.841 943.933C152.341 943.51 154.21 942.983 155.991 942.476C124.191 931.141 95.638 922.841 68.691 917.105C64.901 916.298 61.024 915.586 57.276 914.897H57.271C53.46 914.197 49.519 913.473 45.671 912.649C42.239 911.915 38.805 910.955 35.484 910.026C33.649 909.513 31.752 908.983 29.865 908.493L25.717 907.448ZM990.593 643.448C966.727 644.169 942.664 645.322 919.073 646.875C895.248 648.443 871.242 650.463 847.724 652.875C803.76 657.389 759.374 663.475 715.799 670.975C706.705 672.539 697.492 674.19 688.416 675.884L682.948 676.913C680.909 677.299 678.812 677.628 676.591 677.977C672.791 678.577 668.87 679.188 665.101 680.129C661.409 680.969 657.861 682.35 654.573 684.229C650.989 686.496 648.132 689.744 646.342 693.588C644.516 697.463 643.026 701.488 641.889 705.619C641.553 706.719 641.207 707.847 640.853 708.946C637.524 719.294 634.232 729.828 631.067 740.254C618.299 782.324 606.726 824.591 596.667 865.88C593.076 880.62 589.715 895.667 586.467 910.219V910.226V910.238C585.102 916.35 583.69 922.671 582.28 928.884C578.545 945.347 574.162 963.018 568.486 984.496C569.143 983.993 569.906 983.647 570.717 983.483C590.762 979.218 611.481 976.91 631.517 974.677C635.71 974.21 640.045 973.727 644.327 973.231L646.708 972.954C670.881 970.111 696.866 967.073 723.1 964.124L891.758 945.157C894.575 944.84 897.502 944.597 900.331 944.357C907.593 943.757 915.1 943.128 922.041 941.214C929.378 939.19 934.833 934.282 938.716 926.214C941.973 919.442 943.603 911.665 945.116 903.624L945.2 903.181C950.179 876.698 954.624 849.633 958.923 823.459V823.44C961.807 805.877 964.79 787.716 967.913 769.864L990.593 643.448ZM562.258 982.259H562.282C563.643 982.228 564.98 982.625 566.104 983.392L572.404 933.031C569.204 932.82 565.457 931.291 561.83 929.813C558.293 928.371 554.953 927.013 552.455 927.013C552.273 927.013 552.095 927.02 551.926 927.035C554.821 931.892 555.589 936.835 554.208 941.735C552.582 947.502 548.552 950.427 542.231 950.427C538.541 950.314 534.892 949.612 531.423 948.347C528.196 947.23 525.048 945.896 522 944.356C520.329 943.525 518.648 942.64 517.021 941.783C511.342 938.794 505.47 935.702 499.045 934.35C497.395 933.997 495.713 933.816 494.026 933.809C487.532 933.809 482.326 936.643 476.289 939.924L475.41 940.402C468.893 943.956 461.849 946.445 454.545 947.773C452.1 948.21 449.621 948.427 447.137 948.419C445.902 948.419 444.655 948.371 443.325 948.272C443.091 948.463 442.838 948.631 442.571 948.772L440.629 949.792C449.429 950.192 458.513 952.951 466.529 955.384C475.341 958.058 484.08 961.347 491.58 964.221L499.714 967.347C509.699 971.324 519.887 974.771 530.235 977.674C540.57 980.591 551.244 982.134 561.982 982.264L562.258 982.259ZM338.074 443.243C336.184 444.333 334.463 445.692 332.965 447.277C328.159 452.377 324.697 458.694 321.35 464.805L321.15 465.17C320.316 466.693 319.493 468.227 318.698 469.711L318.687 469.732C317.714 471.547 316.708 473.423 315.694 475.255C314.816 476.841 313.913 478.402 313.224 479.586C312.863 480.134 312.471 480.661 312.05 481.164C311.712 481.589 311.362 482.029 311.122 482.37C311.71 483.193 312.35 484.052 313.079 484.995C313.131 485.062 313.879 485.887 315.123 487.255L315.174 487.311C320.26 492.911 332.174 506.011 337.042 511.972C341.805 517.799 346.28 523.765 350.342 529.704C354.561 535.871 358.478 542.215 361.984 548.56C366.143 556.089 369.775 564.012 373.284 571.675C375.701 576.949 378.2 582.4 380.854 587.687C383.999 594.274 387.865 600.493 392.38 606.229C392.486 606.359 392.598 606.486 392.706 606.61L392.713 606.618L392.726 606.632C392.795 606.711 392.864 606.79 392.933 606.871C394.37 602.989 397.623 598.894 399.998 595.904C400.534 595.229 401.041 594.591 401.46 594.038L401.668 593.761C406.193 587.661 411.223 581.339 417.497 573.861C422.334 568.101 427.484 562.238 432.797 556.437L434.763 554.303C435.425 553.588 436.104 552.825 436.824 552.018C440.016 548.437 443.988 543.979 448.359 541.675C447.766 540.623 447.1 539.614 446.366 538.655C441.218 531.928 433.85 527.109 427.347 523.12L422.83 520.372C409.416 512.202 402.356 507.431 397.7 504.186C389.489 498.53 381.657 492.343 374.255 485.663C367.187 479.216 359.033 471.451 352.147 462.735L349.821 459.793L338.074 443.243ZM366.486 438.102C364.618 438.259 362.677 438.373 360.8 438.482C354.593 438.845 348.175 439.221 342.533 441.21C346.426 444.89 350.262 448.803 353.971 452.587C356.497 455.164 359.109 457.829 361.708 460.387C362.22 457.034 362.912 453.71 363.78 450.431C363.995 449.558 364.216 448.657 364.427 447.768L366.486 438.102ZM364.438 1088.03C363.747 1088 363.076 1087.79 362.486 1087.43C361.896 1087.07 361.407 1086.56 361.063 1085.96C360.693 1085.39 360.483 1084.72 360.452 1084.04C360.421 1083.35 360.572 1082.67 360.889 1082.06C370.506 1063.72 381.843 1046.29 392.662 1030.19L394.14 1027.99C399.231 1020.41 404.495 1012.58 409.727 1004.9C412.552 1000.76 414.869 997.44 417.021 994.462L418.521 992.405L426.638 983.523C426.745 983.464 426.866 983.433 426.988 983.433C427.174 983.435 427.351 983.509 427.484 983.64C427.616 983.77 427.692 983.947 427.696 984.133C427.839 987.696 426.196 991.158 424.611 994.507C424.371 995.013 424.1 995.586 423.853 996.123L423.672 996.523C421.8 1000.69 419.6 1005.17 416.949 1010.23C412.121 1019.43 407.165 1028.4 402.22 1036.88C390.758 1056.54 379.237 1072.87 367 1086.78C366.69 1087.17 366.3 1087.48 365.858 1087.69C365.415 1087.91 364.931 1088.03 364.438 1088.04V1088.03ZM569.686 910.033C565.42 910.033 561.316 907.85 556.768 903.161L553.713 899.969C551.753 897.786 549.507 895.878 547.036 894.297C544.388 892.726 541.354 891.925 538.276 891.986C538.009 891.986 537.734 891.991 537.458 892.001C532.255 892.301 527.075 892.915 521.946 893.84H521.939C519.009 894.308 515.979 894.791 513.01 895.14C504.181 896.184 494.9 897.13 485.425 897.951H485.391C485.306 897.949 485.226 897.915 485.165 897.856C485.104 897.797 485.068 897.717 485.064 897.633C485.048 897.543 485.065 897.451 485.114 897.373C485.162 897.296 485.237 897.239 485.325 897.214L495.646 894.645L535.769 886.552C537.139 886.38 538.519 886.291 539.9 886.286C544.79 886.139 549.571 887.747 553.378 890.82C555.236 892.414 556.981 894.135 558.601 895.97C560.474 898.131 562.55 900.107 564.801 901.87C567.103 903.627 569.87 904.67 572.759 904.87C573.334 904.899 573.879 905.133 574.297 905.529C574.714 905.925 574.976 906.457 575.036 907.029C575.109 907.568 574.98 908.115 574.676 908.566C574.371 909.016 573.911 909.339 573.383 909.472C572.184 909.836 570.939 910.024 569.686 910.033ZM577.664 884.925C577.542 884.925 577.421 884.91 577.302 884.882C574.107 884.071 571.053 882.779 568.245 881.051C565.447 879.321 562.738 877.452 560.128 875.451C558.12 873.963 556.044 872.426 553.92 871.039C549.193 867.952 544.055 866.576 537.259 866.576C534.033 866.576 530.759 866.868 527.302 867.176L526.694 867.23C516.767 868.114 507.239 869.319 498.376 870.81C495.319 871.324 492.209 871.952 489.201 872.558C483.466 873.829 477.663 874.77 471.82 875.378V875.36C471.564 875.347 471.32 875.249 471.125 875.082C470.93 874.915 470.796 874.689 470.744 874.438C470.684 874.22 470.703 873.987 470.797 873.781C470.891 873.576 471.055 873.41 471.26 873.313C480.098 868.9 490.186 866.786 499.942 864.741L500.584 864.607L529.524 860.107L530.59 860.001C533.941 859.675 536.5 859.53 538.89 859.53C541.98 859.496 545.063 859.82 548.078 860.495C551.213 861.221 554.213 862.44 556.966 864.107L558.575 865.08C566.011 869.6 574.343 875.049 579.101 882.537C579.246 882.757 579.326 883.013 579.335 883.276C579.343 883.539 579.278 883.799 579.148 884.028C579.002 884.295 578.788 884.519 578.527 884.677C578.266 884.834 577.969 884.92 577.664 884.925ZM817.318 843.94C811.399 844.046 805.494 843.345 799.765 841.856C797.017 841.103 794.378 840 791.911 838.574C789.509 837.177 787.38 835.355 785.63 833.197C782.802 829.659 781.766 826.103 782.551 822.629C783.38 819.594 785.119 816.886 787.533 814.869C790.139 812.571 793.057 810.655 796.201 809.177C794.957 808.073 794.026 806.661 793.501 805.083C792.984 803.457 793.021 801.706 793.607 800.104C794.992 796.171 798.657 793.777 802.2 791.462C804.149 790.286 805.976 788.92 807.656 787.384C810.291 784.826 812.379 781.759 813.795 778.371C815.21 774.992 815.619 771.277 814.972 767.671L814.892 767.271C814.753 766.706 814.744 766.116 814.865 765.547C814.986 764.977 815.235 764.443 815.592 763.983C815.951 763.552 816.402 763.206 816.91 762.969C817.419 762.732 817.974 762.611 818.535 762.613C819.18 762.62 819.814 762.783 820.383 763.086C820.953 763.39 821.441 763.826 821.806 764.358L822.332 765.084C822.905 765.87 823.496 766.663 824.121 767.503L824.139 767.527C826.901 771.064 829.406 774.794 831.633 778.69C834.071 783.223 835.179 787.226 835.023 790.928C837.424 791.004 839.763 791.711 841.804 792.977C843.839 794.179 845.455 795.979 846.432 798.131C847.281 800.256 847.606 802.554 847.379 804.831C851.784 805.173 856.453 808.114 858.927 810.701C860.985 812.818 862.248 815.583 862.499 818.525C862.719 821.465 862.018 824.401 860.493 826.925C852.949 839.771 835.911 842.883 826.426 843.594L825.981 843.626C822.841 843.834 820.008 843.939 817.317 843.939L817.318 843.94ZM799.181 811.162C796.681 813.713 794.251 816.362 791.9 818.917C791.053 819.722 790.395 820.704 789.973 821.793C789.55 822.882 789.375 824.052 789.458 825.217C789.731 827.617 791.341 829.896 794.112 831.798C797.367 833.917 801.028 835.335 804.861 835.959C808.842 836.662 812.88 836.988 816.922 836.934H816.927C819.418 836.934 821.841 836.844 823.673 836.766C828.474 836.613 833.239 835.879 837.864 834.58C842.496 833.298 846.805 831.053 850.51 827.992L850.83 827.713C852.19 826.524 853.365 825.139 854.316 823.603C855.233 822.239 855.681 820.613 855.591 818.972C855.449 818.049 855.078 817.176 854.514 816.432C853.949 815.688 853.208 815.096 852.358 814.71C850.862 813.962 849.245 813.486 847.583 813.305C846.745 813.183 845.914 813.013 845.095 812.796C842.751 817.39 839.178 820.366 835.295 820.96C835.107 820.989 834.918 821.004 834.728 821.004C833.969 821.004 833.23 820.761 832.618 820.312C832.006 819.862 831.554 819.229 831.328 818.504C831.137 817.878 831.164 817.207 831.403 816.598C831.642 815.99 832.08 815.48 832.645 815.151L833.345 814.718C835.324 813.497 837.039 811.894 838.39 810.002C839.764 808.084 840.49 805.778 840.46 803.419C840.351 801.973 839.73 800.613 838.71 799.583C838.246 799.033 837.676 798.583 837.033 798.259C836.391 797.935 835.69 797.745 834.972 797.699C834.491 797.702 834.016 797.805 833.577 798.002C833.139 798.198 832.745 798.484 832.423 798.841L832.279 798.997C832.001 799.333 831.653 799.603 831.259 799.791C830.866 799.978 830.436 800.078 830 800.082C829.363 800.058 828.743 799.873 828.196 799.545C827.65 799.216 827.195 798.756 826.874 798.205C826.566 797.721 826.391 797.164 826.368 796.591C826.344 796.017 826.473 795.448 826.74 794.94L826.824 794.791L821.983 776.657C821.258 779.763 820.043 782.733 818.383 785.457C816.687 788.244 814.604 790.777 812.196 792.98C810.331 794.694 808.301 796.218 806.134 797.53L805.873 797.681C805.59 797.84 805.229 798.028 804.88 798.211C802.652 799.374 799.285 801.132 799.596 803.198C799.83 804.749 802.775 806.598 804.031 807.319C806.304 808.627 808.712 809.576 809.757 809.577C809.88 809.584 809.997 809.633 810.088 809.716C810.18 809.798 810.241 809.909 810.262 810.03C810.289 810.13 810.279 810.236 810.234 810.329C810.189 810.423 810.112 810.497 810.017 810.538C808.012 811.538 805.817 812.101 803.578 812.192C802.053 812.188 800.549 811.836 799.181 811.162ZM234.648 758.03C233.94 758.077 233.241 757.853 232.691 757.403C232.142 756.954 231.784 756.313 231.689 755.61C229.882 743.978 228.089 732.167 226.345 720.746V720.732C224.289 707.232 222.163 693.263 220.014 679.538C218.485 669.773 216.735 659.874 215.043 650.301V650.285C214.529 647.385 213.998 644.377 213.475 641.385L207.867 604.679C207.865 604.586 207.882 604.494 207.916 604.409C207.95 604.323 208.002 604.245 208.067 604.179C208.22 604.029 208.426 603.944 208.64 603.944C208.767 603.941 208.893 603.973 209.003 604.036C209.114 604.1 209.205 604.192 209.267 604.303C214.732 613.918 217.814 625.288 220.795 636.282C221.134 637.531 221.483 638.82 221.83 640.082C224.864 651.126 227.608 663.066 230.465 677.656C232.978 690.483 234.909 703.384 236.205 716.001C237.521 728.817 238.234 741.841 238.324 754.714C238.33 755.122 238.253 755.528 238.098 755.906C237.944 756.284 237.714 756.627 237.424 756.914C236.679 757.633 235.683 758.034 234.648 758.03ZM275.814 721.542C275.193 721.535 274.581 721.395 274.02 721.132C273.458 720.868 272.959 720.486 272.558 720.013C272.184 719.564 271.918 719.035 271.779 718.468C271.64 717.9 271.633 717.308 271.758 716.737L268.37 623.402C268.31 623.242 268.29 623.07 268.312 622.901C268.334 622.732 268.397 622.57 268.496 622.431C268.61 622.288 268.756 622.173 268.922 622.096C269.087 622.019 269.269 621.981 269.452 621.986C269.706 621.981 269.956 622.055 270.167 622.197C270.378 622.339 270.54 622.542 270.631 622.78C273.71 630.337 276.256 638.101 278.248 646.015C280.246 653.947 281.652 662.017 282.456 670.157C284.14 686.432 283.031 702.874 279.176 718.775C279.035 719.56 278.619 720.269 278.003 720.775C277.387 721.282 276.611 721.553 275.814 721.541V721.542ZM463.071 635.802C462.779 635.81 462.49 635.75 462.226 635.626C461.961 635.502 461.73 635.318 461.55 635.088C461.069 634.447 460.624 633.779 460.219 633.088C459.528 631.753 458.563 630.578 457.387 629.641C455.48 628.292 453.096 627.812 450.787 627.349C449.765 627.144 448.709 626.931 447.727 626.649C443.668 625.519 439.985 623.324 437.058 620.293L426.585 596.658C426.573 596.533 426.588 596.407 426.627 596.287C426.667 596.168 426.731 596.058 426.815 595.965C426.913 595.868 427.029 595.792 427.157 595.741C427.285 595.691 427.421 595.666 427.559 595.67C427.743 595.667 427.924 595.707 428.089 595.788C428.254 595.869 428.397 595.989 428.506 596.136C430.213 598.657 431.757 601.284 433.129 604.002C434.687 607.16 436.521 610.175 438.608 613.012C440.764 615.873 443.634 618.118 446.931 619.52C448.889 620.266 450.909 620.835 452.968 621.22C456.168 621.92 459.477 622.636 462.249 624.835C463.774 625.987 464.979 627.51 465.749 629.259C466.121 630.118 466.275 631.055 466.198 631.988C466.12 632.921 465.812 633.82 465.303 634.605C465.055 634.969 464.722 635.268 464.333 635.477C463.945 635.685 463.512 635.797 463.071 635.802ZM480.723 617.809C480.368 617.814 480.015 617.748 479.685 617.615C479.356 617.481 479.056 617.284 478.804 617.033C476.066 614.133 475.48 609.812 477.064 604.18C478.477 599.724 480.435 595.461 482.895 591.486C487.317 583.972 493.356 578.762 499.749 573.245C500.96 572.2 502.212 571.12 503.461 570.015C511.887 562.562 517.287 552.358 522.052 543.355C523.452 540.718 524.846 538.008 526.198 535.387L526.226 535.333L526.24 535.306C527.896 532.096 529.609 528.776 531.34 525.538C528.52 523.046 527.318 518.394 526.351 514.657C526.18 513.993 526.018 513.367 525.851 512.767L525.751 512.405C523.875 505.924 522.455 499.32 521.5 492.641C520.59 486.296 520.245 479.883 520.469 473.477L520.537 471.836L523.688 460.068C523.863 459.975 524.058 459.926 524.256 459.923C524.453 459.93 524.646 459.983 524.818 460.08C524.99 460.176 525.136 460.312 525.245 460.476C525.378 460.609 525.48 460.77 525.543 460.948C525.607 461.125 525.63 461.314 525.612 461.502C525.594 461.689 525.535 461.87 525.438 462.032C525.342 462.194 525.211 462.333 525.055 462.438C525.938 464.739 526.64 467.106 527.155 469.516C527.741 472.103 528.377 474.746 529.099 477.593C529.782 480.287 530.434 483.037 531.065 485.693L531.073 485.727L531.078 485.75C531.711 488.42 532.365 491.18 533.052 493.885C534.435 499.331 536.16 505.06 538.18 510.913C538.295 511.248 538.428 511.613 538.586 512.022L538.806 512.589L538.86 512.503C538.909 512.414 538.981 512.34 539.068 512.287C539.155 512.235 539.254 512.206 539.355 512.203C539.444 512.205 539.531 512.226 539.611 512.264C539.691 512.302 539.762 512.357 539.819 512.425C539.883 512.499 539.93 512.587 539.957 512.681C539.984 512.776 539.99 512.875 539.974 512.972C539.919 513.335 539.852 513.703 539.787 514.059V514.07V514.095C539.747 514.314 539.706 514.541 539.668 514.764L539.868 515.299C541.138 518.717 541.994 522.292 539.678 525.289C538.977 526.324 537.893 527.038 536.665 527.275C534.728 533.531 532.436 539.671 529.8 545.666L529.049 547.397C525.433 555.697 521.39 564.421 515.255 571.948C512.365 575.321 509.23 578.476 505.876 581.388C501.624 585.264 497.227 589.273 493.976 594.288C491.404 598.346 489.386 602.73 487.976 607.323L487.412 609.08C486.334 612.395 485.112 615.53 482.048 617.446C481.649 617.689 481.19 617.815 480.723 617.809ZM532.533 608.874C531.232 608.893 529.966 608.458 528.952 607.643L522.087 601.943C520.933 600.984 519.781 600.02 518.663 599.08C517.62 598.202 516.671 597.39 515.763 596.595L514.331 595.331C514.167 595.184 513.865 594.874 513.484 594.481C512.369 593.334 510.684 591.6 510.076 591.503C510.016 591.494 509.956 591.489 509.896 591.489C508.07 591.489 504.414 595.301 502.45 597.349L502.444 597.355C502.181 597.629 501.954 597.865 501.768 598.055L501.563 598.255C498.547 601.232 495.761 604.434 493.229 607.832C493.17 607.916 493.092 607.986 493.002 608.034C492.911 608.083 492.81 608.109 492.707 608.111C492.605 608.111 492.505 608.085 492.415 608.037C492.325 607.988 492.249 607.918 492.194 607.832C492.138 607.74 492.107 607.635 492.104 607.527C492.101 607.419 492.126 607.312 492.177 607.217C494.434 602.311 497.15 597.629 500.29 593.235L500.929 592.361C501.286 591.881 501.663 591.338 502.062 590.761L502.079 590.736C504.046 587.903 506.493 584.378 509.567 583.685C510.006 583.587 510.454 583.537 510.903 583.538C514.275 583.538 517.617 586.254 520.303 588.438C520.873 588.902 521.412 589.338 521.925 589.732L522.134 589.89C523.843 591.173 525.526 592.478 526.801 593.471C526.67 589.208 526.989 584.944 527.751 580.748C528.5 576.574 529.984 572.566 532.134 568.911C534.401 565.441 537.072 562.253 540.089 559.411C541.359 558.117 542.672 556.78 543.902 555.404C546.225 552.631 548.261 549.631 549.979 546.448C551.385 543.911 552.958 541.469 554.687 539.14C555.179 538.513 555.898 538.105 556.688 538.002C556.808 534.761 557.21 531.462 557.599 528.272L557.605 528.225C557.714 527.335 557.826 526.414 557.929 525.514L558.067 524.282C558.136 523.637 558.217 522.988 558.302 522.3C558.802 518.287 559.364 513.739 557.487 510.149C555.834 506.987 552.411 504.525 549.387 502.349C548.601 501.783 547.858 501.249 547.152 500.71L544.281 498.482L535.989 490.559C535.864 490.399 535.788 490.207 535.77 490.005C535.752 489.803 535.794 489.6 535.889 489.421C536.021 489.181 536.213 488.979 536.447 488.836C536.681 488.693 536.949 488.614 537.223 488.606C537.307 488.606 537.39 488.614 537.472 488.631C542.672 489.706 547.697 492.505 552.556 495.213C553.318 495.637 554.181 496.119 555.006 496.568L555.59 496.885C559.749 499.127 564.315 502.046 566.649 506.704C569.08 511.552 568.959 517.091 568.598 522.814L568.566 523.32C568.477 524.706 568.402 526.131 568.33 527.508V527.537C568.197 532.694 567.656 537.833 566.711 542.905C566.512 544.011 565.909 545.004 565.019 545.69C564.208 546.277 563.227 546.585 562.226 546.567C561.653 546.566 561.084 546.48 560.536 546.311C558.317 553.311 553.12 558.973 548.093 564.444C546.351 566.344 544.549 568.302 542.941 570.255C539.632 574.273 537.691 579.249 537.009 585.469C536.409 590.951 536.831 596.649 537.24 602.159C537.29 602.826 537.339 603.49 537.386 604.151C537.446 604.731 537.383 605.316 537.201 605.87C537.02 606.423 536.723 606.932 536.332 607.364C535.835 607.861 535.242 608.252 534.589 608.511C533.935 608.771 533.236 608.894 532.533 608.874Z" fill="black"/>
<path d="M637.9 239.053C634.11 176.853 613.926 106.33 554.522 75.7905C423.564 23.2325 251.38 155.588 242.264 290.8C239.086 337.084 264.784 387.659 311.745 400.527C322.186 414.36 337.976 422.809 353.561 430.141C539.188 526.448 659.095 448.16 637.901 239.053H637.9Z" fill="#FFD4B7"/>
<path d="M680.189 200.361C673.629 182.141 666.702 164.061 659.409 146.121C652.309 128.661 645.896 110.821 637.079 94.1908C584.419 -5.14925 488.659 -5.14925 439.159 7.83075C413.489 -3.22925 365.408 -0.109246 338.679 9.87075C295.407 26.0278 242.658 89.5858 224.623 118.144C184.8 181.191 159.954 265.108 186.4 337.964C189.855 347.28 194.15 356.264 199.23 364.804C195.98 369.142 192.398 373.221 188.517 377.004C176.669 388.726 164.817 400.062 154.586 413.283C144.389 426.249 136.019 440.553 129.71 455.795C117.874 484.844 117.3 517.744 132.952 545.464C146.566 569.584 170.683 587.545 197.852 589.258C199.247 589.452 200.644 589.63 202.047 589.771C205.648 595.705 210.019 601.135 215.047 605.921C230.397 620.521 266.987 628.011 287.857 628.491C288.927 629.351 290.007 630.211 291.087 631.061C303.857 641.111 317.257 651.251 331.917 658.401C341.847 663.251 354.867 667.301 365.227 663.801C369.927 666.941 377.637 666.281 382.297 663.711C389.957 659.491 396.187 651.891 399.977 644.111C409.167 625.221 406.957 604.551 404.597 584.371C401.997 562.081 399.497 539.781 396.957 517.491C394.967 500.061 392.887 482.341 387.587 465.551C384.893 456.853 381.212 448.492 376.617 440.631C376.743 439.986 376.712 439.321 376.527 438.691C375.007 433.751 371.867 431.161 368.147 427.801C367.667 427.371 367.187 426.931 366.717 426.481C364.905 424.381 362.903 422.452 360.737 420.721C359.917 419.891 359.107 419.051 358.297 418.211C351.522 411.203 345.259 403.717 339.557 395.811C334.077 388.111 329.127 380.071 324.417 371.881C319.627 363.551 316.457 354.361 311.677 346.091C311.575 345.923 311.436 345.78 311.271 345.674C311.106 345.567 310.919 345.498 310.724 345.473C310.53 345.448 310.332 345.467 310.145 345.529C309.959 345.591 309.788 345.694 309.647 345.831C308.167 347.361 307.217 349.061 307.397 350.851L306.657 350.961C306.575 350.256 306.344 349.577 305.981 348.968C305.617 348.359 305.129 347.834 304.548 347.427C303.967 347.02 303.307 346.74 302.611 346.607C301.914 346.473 301.197 346.488 300.507 346.651C295.447 347.531 291.287 347.861 286.907 346.181C287.677 341.071 288.387 335.951 289.087 330.821C290.367 321.381 291.557 311.911 292.577 302.441C295.091 303.049 297.542 303.893 299.897 304.961C303.34 306.485 306.517 308.552 309.307 311.081C312.027 313.581 313.907 316.951 317.227 318.691C318.085 319.159 319.06 319.368 320.034 319.292C321.008 319.216 321.939 318.859 322.714 318.263C323.488 317.668 324.073 316.86 324.397 315.938C324.721 315.016 324.769 314.02 324.537 313.071C322.267 304.341 309.417 299.341 301.467 297.691C298.734 297.126 295.946 296.875 293.157 296.941C293.787 290.861 294.337 284.777 294.807 278.691C295.027 275.811 295.23 272.927 295.417 270.041C301.642 268.154 308.2 267.625 314.647 268.491C316.767 270.181 318.887 271.851 320.937 273.541C327.447 278.921 333.927 284.331 340.327 289.841C340.907 290.331 341.477 290.821 342.057 291.321C345.857 294.591 350.597 291.351 349.957 286.721C344.737 248.781 367.977 218.601 395.187 195.221C425.307 169.331 480.067 166.321 515.887 121.471C532.387 124.829 569.217 134.801 584.417 159.021C605.697 192.961 602.917 223.371 604.537 261.871C606.157 300.401 610.277 340.591 601.527 378.581C593.457 413.611 571.607 443.541 537.707 457.301C536.867 457.641 536.017 457.971 535.167 458.291C517.605 464.971 498.545 466.7 480.067 463.291C459.657 459.431 442.617 450.091 425.637 438.601C424.657 437.951 423.227 439.291 423.967 440.271C446.347 469.931 490.307 479.841 525.177 472.011C526.807 471.641 528.427 471.237 530.037 470.801C522.329 493.4 523.739 518.115 533.967 539.691C540.156 552.789 549.328 564.255 560.747 573.171C573.257 583.051 588.777 591.031 597.457 604.901C605.407 617.611 603.047 631.891 589.437 639.231C586.007 641.091 584.687 647.101 588.087 649.741C589.387 650.741 590.687 651.761 592.017 652.761C599.637 658.511 620.567 669.311 623.957 669.711C654.057 673.281 674.297 651.181 687.267 625.111C702.497 594.511 698.537 557.221 681.757 528.081C668.297 504.701 641.787 481.661 652.327 452.071C656.087 441.501 663.777 432.491 671.247 424.351C679.767 415.081 688.927 406.401 697.097 396.801C705.217 387.271 712.417 376.901 716.437 364.941C722.307 347.461 719.387 328.561 714.977 311.111C705.529 273.651 693.259 236.691 680.189 200.361Z" fill="black"/>
<path fill-rule="evenodd" clip-rule="evenodd" d="M569.63 207.475L568.193 207.181C566.503 206.843 564.804 206.986 563.311 207.593C561.847 208.189 560.572 209.226 559.68 210.723C558.495 212.716 558.337 214.388 558.887 216.597C559.311 218.304 560.242 219.588 561.46 220.516C562.744 221.493 564.37 222.063 566.06 222.261C573.854 223.177 581.53 224.892 588.992 227.325C592.488 228.466 595.788 230.012 599.058 231.615L601.877 233.004C604.477 234.275 607.163 235.501 610.557 236.39C610.824 236.46 611.087 236.526 611.349 236.588C612.29 236.293 612.45 235.935 612.649 235.675L612.73 235.574C612.972 235.27 613.271 234.804 612.988 232.633C605.733 217.583 586.083 211.011 570.583 207.677L569.63 207.475ZM467.588 211.832L469.465 211.504L470.428 211.34C476.052 210.411 482.718 209.789 486.603 214.203C488.782 216.679 489.532 221.281 486.603 223.651C482.767 226.756 478.63 226.653 474.218 226.544C472.704 226.506 471.158 226.468 469.581 226.558C464.493 226.85 459.603 227.692 454.702 229.093C443.95 232.166 435.189 237.776 426.006 243.936C424.801 244.744 423.571 243.203 424.146 242.076C429.447 231.693 439.72 223.164 450.01 217.965C455.502 215.19 461.512 212.888 467.588 211.832ZM476.237 257.717C474.693 256.604 472.997 256.002 471.224 256.002C469.451 256.002 467.755 256.604 466.21 257.717C464.69 258.814 463.314 260.413 462.168 262.409C459.999 266.184 458.643 271.398 458.643 277.162C458.643 282.926 459.999 288.14 462.168 291.915C463.314 293.91 464.69 295.51 466.21 296.606C467.755 297.72 469.451 298.322 471.224 298.322C472.997 298.322 474.693 297.72 476.237 296.606C477.758 295.51 479.134 293.91 480.28 291.915C482.449 288.14 483.805 282.926 483.805 277.162C483.805 271.398 482.449 266.184 480.28 262.409C479.134 260.413 477.758 258.814 476.237 257.717ZM583.464 256.002C585.237 256.002 586.933 256.604 588.478 257.717C589.998 258.814 591.374 260.413 592.52 262.409C594.689 266.184 596.045 271.398 596.045 277.162C596.045 282.926 594.689 288.14 592.52 291.915C591.374 293.91 589.998 295.51 588.478 296.606C586.933 297.72 585.237 298.322 583.464 298.322C581.691 298.322 579.995 297.72 578.45 296.606C576.93 295.51 575.554 293.91 574.408 291.915C572.239 288.14 570.883 282.926 570.883 277.162C570.883 271.398 572.239 266.184 574.408 262.409C575.554 260.413 576.93 258.814 578.45 257.717C579.995 256.604 581.691 256.002 583.464 256.002Z" fill="black"/>
</svg>
