<?xml version="1.0" encoding="UTF-8"?>
<!DOCTYPE svg PUBLIC "-//W3C//DTD SVG 1.1//EN" "http://www.w3.org/Graphics/SVG/1.1/DTD/svg11.dtd">
<svg xmlns="http://www.w3.org/2000/svg" version="1.1" width="600px" height="600px" style="shape-rendering:geometricPrecision; text-rendering:geometricPrecision; image-rendering:optimizeQuality; fill-rule:evenodd; clip-rule:evenodd" xmlns:xlink="http://www.w3.org/1999/xlink">
<g><path style="opacity:0.992" fill="#010101" d="M 539.5,341.5 C 538.119,345.049 536.119,348.216 533.5,351C 537.003,350.582 540.003,349.082 542.5,346.5C 546.042,344.899 549.709,343.565 553.5,342.5C 554.91,342.868 555.91,343.701 556.5,345C 553.536,348.966 550.203,352.633 546.5,356C 558.125,354.162 559.459,357.495 550.5,366C 546.286,368.274 541.953,370.274 537.5,372C 525.231,374.656 512.897,376.989 500.5,379C 491.689,381.322 484.189,385.822 478,392.5C 472.219,401.727 467.219,411.394 463,421.5C 455.706,444.384 447.04,466.717 437,488.5C 432.168,498.484 426.001,507.484 418.5,515.5C 417.817,515.137 417.15,514.804 416.5,514.5C 422.816,504.545 428.649,494.212 434,483.5C 440.874,465.21 447.54,446.877 454,428.5C 459.693,414.114 466.693,400.447 475,387.5C 479.543,382.813 484.709,378.98 490.5,376C 505.29,371.986 520.29,368.986 535.5,367C 538.833,365.667 542.167,364.333 545.5,363C 537.919,364.231 530.253,364.564 522.5,364C 529.884,361.335 536.884,357.668 543.5,353C 545.007,352.163 545.507,350.996 545,349.5C 535.688,355.37 525.521,357.87 514.5,357C 522.513,355.744 529.346,352.244 535,346.5C 535.982,345.241 536.315,343.908 536,342.5C 519.321,354.768 501.155,357.935 481.5,352C 480.294,350.982 480.627,350.482 482.5,350.5C 483.554,350.68 484.554,351.013 485.5,351.5C 490.156,347.202 492.49,341.869 492.5,335.5C 487.756,335.725 484.09,337.892 481.5,342C 474.376,345.061 467.709,348.895 461.5,353.5C 460.469,354.7 459.635,356.034 459,357.5C 458.84,361.287 458.174,364.954 457,368.5C 441.469,392.251 425.969,415.917 410.5,439.5C 409.702,442.489 408.202,445.155 406,447.5C 404.008,470.117 403.008,492.784 403,515.5C 400.959,516.423 398.792,516.756 396.5,516.5C 334.32,514.928 272.153,515.262 210,517.5C 204.357,517.903 199.857,515.903 196.5,511.5C 186.137,512.661 176.471,510.494 167.5,505C 163.518,500.874 160.685,496.041 159,490.5C 156.885,481.797 155.718,472.964 155.5,464C 156.106,452.838 156.606,441.672 157,430.5C 157.614,424.186 158.781,418.02 160.5,412C 159.069,411.535 157.903,410.701 157,409.5C 156.354,394.522 158.187,379.855 162.5,365.5C 150.678,362.262 139.011,358.428 127.5,354C 115.398,348.899 107.065,340.233 102.5,328C 102.903,326.527 103.57,325.194 104.5,324C 99.9306,320.667 98.9306,316.667 101.5,312C 103.473,311.505 105.473,311.338 107.5,311.5C 107.81,313.144 108.81,314.144 110.5,314.5C 111.167,314.5 111.5,314.833 111.5,315.5C 111.5,317.5 112.5,318.5 114.5,318.5C 115.373,320.886 116.873,322.886 119,324.5C 119.47,323.423 119.303,322.423 118.5,321.5C 118.75,319.326 119.75,317.659 121.5,316.5C 123.833,316.5 126.167,316.5 128.5,316.5C 134.898,318.917 141.564,320.583 148.5,321.5C 157.51,321.896 166.343,323.23 175,325.5C 178.97,314.859 185.303,305.859 194,298.5C 193.017,294.164 191.684,289.831 190,285.5C 188.278,269.333 192.611,255 203,242.5C 209.053,236.95 214.553,230.95 219.5,224.5C 210.439,206.676 208.272,188.009 213,168.5C 221.858,132.581 242.025,105.081 273.5,86C 287.023,81.9915 300.69,81.4915 314.5,84.5C 352.957,77.6435 380.124,91.9768 396,127.5C 407.934,154.968 417.267,183.301 424,212.5C 424.782,220.59 422.782,227.923 418,234.5C 412,241.167 406,247.833 400,254.5C 398.377,257.327 397.21,260.327 396.5,263.5C 397.269,266.51 398.103,269.51 399,272.5C 404.497,280.001 409.164,288.001 413,296.5C 415.323,304.401 415.989,312.401 415,320.5C 427.113,344.727 433.78,370.393 435,397.5C 442,386.833 449,376.167 456,365.5C 455.275,357.451 458.442,351.285 465.5,347C 473.641,344.433 480.641,340.1 486.5,334C 489.747,331.862 492.581,332.362 495,335.5C 494.967,341.264 493.134,346.431 489.5,351C 496.798,352.784 504.131,352.784 511.5,351C 519.507,348.498 527.174,345.164 534.5,341C 536.387,340.22 538.054,340.387 539.5,341.5 Z"/></g>
<g><path style="opacity:1" fill="#fbfbfb" d="M 377.5,231.5 C 377.167,231.5 376.833,231.5 376.5,231.5C 376.201,228.358 374.534,226.191 371.5,225C 362.989,224.395 354.489,224.562 346,225.5C 340.294,225.162 334.627,224.495 329,223.5C 322.04,224.981 320.706,228.648 325,234.5C 335.551,244.93 348.051,248.097 362.5,244C 367.45,242.371 371.45,239.538 374.5,235.5C 375.167,235.5 375.5,235.833 375.5,236.5C 370.836,250.659 361.169,259.492 346.5,263C 340.167,263.667 333.833,263.667 327.5,263C 320.553,260.225 313.886,257.225 307.5,254C 317.871,264.679 330.537,269.513 345.5,268.5C 347.073,274.741 348.239,281.074 349,287.5C 350.17,290.505 351.336,293.505 352.5,296.5C 343.585,310.917 332.085,322.917 318,332.5C 312.587,329.207 307.42,325.541 302.5,321.5C 300.152,305.538 297.985,289.538 296,273.5C 294.865,266.095 292.532,259.095 289,252.5C 278.054,242.606 269.554,230.939 263.5,217.5C 262.808,218.025 262.308,218.692 262,219.5C 259.894,217.709 257.394,217.042 254.5,217.5C 255.168,211.822 256.002,206.155 257,200.5C 260.396,201.449 263.229,203.282 265.5,206C 270.035,206.719 270.701,205.386 267.5,202C 264.395,200.132 261.062,198.965 257.5,198.5C 257.5,194.833 257.5,191.167 257.5,187.5C 260.518,187.335 263.518,187.502 266.5,188C 270.024,191.025 273.691,193.858 277.5,196.5C 278.18,178.344 286.18,164.511 301.5,155C 310.833,150.667 320.167,146.333 329.5,142C 334.923,138.581 339.756,134.415 344,129.5C 363.597,131.93 374.763,142.93 377.5,162.5C 374.77,162.527 372.27,161.86 370,160.5C 365.434,160.977 363.934,163.311 365.5,167.5C 369.816,168.364 374.149,169.031 378.5,169.5C 378.824,173.555 378.491,177.555 377.5,181.5C 376.452,182.383 375.285,183.05 374,183.5C 371.544,181.214 368.71,179.547 365.5,178.5C 359.343,181.044 357.843,185.378 361,191.5C 363.221,196.677 365.721,201.677 368.5,206.5C 371.545,203.453 374.878,200.787 378.5,198.5C 379.783,209.548 379.45,220.548 377.5,231.5 Z"/></g>
<g><path style="opacity:1" fill="#0e0e0e" d="M 319.5,160.5 C 323.257,160.071 326.757,160.737 330,162.5C 330.667,163.5 330.667,164.5 330,165.5C 326.27,166.915 322.437,168.082 318.5,169C 315.02,171.646 311.686,174.479 308.5,177.5C 307.417,176.635 307.251,175.635 308,174.5C 310.595,168.746 314.428,164.079 319.5,160.5 Z"/></g>
<g><path style="opacity:1" fill="#020202" d="M 329.5,178.5 C 337.114,179.028 339.614,183.028 337,190.5C 334.671,195.828 331.838,200.828 328.5,205.5C 322.234,201.403 316.4,196.737 311,191.5C 309.37,183.562 312.537,180.395 320.5,182C 321.931,182.465 323.097,183.299 324,184.5C 325.699,182.304 327.533,180.304 329.5,178.5 Z"/></g>
<g><path style="opacity:1" fill="#111111" d="M 351.5,197.5 C 360.958,199.082 363.458,204.082 359,212.5C 355.238,215.875 351.072,216.375 346.5,214C 343.885,213.205 341.885,211.705 340.5,209.5C 340.833,207.833 341.833,206.833 343.5,206.5C 345.938,208.804 348.771,210.47 352,211.5C 357.407,210.273 358.741,207.273 356,202.5C 354.242,200.917 352.742,199.25 351.5,197.5 Z"/></g>
<g><path style="opacity:1" fill="#0c0c0c" d="M 376.5,231.5 C 375.655,232.671 374.989,234.005 374.5,235.5C 371.45,239.538 367.45,242.371 362.5,244C 348.051,248.097 335.551,244.93 325,234.5C 320.706,228.648 322.04,224.981 329,223.5C 334.627,224.495 340.294,225.162 346,225.5C 354.489,224.562 362.989,224.395 371.5,225C 374.534,226.191 376.201,228.358 376.5,231.5 Z"/></g>
<g><path style="opacity:1" fill="#8f8f8f" d="M 376.5,231.5 C 376.833,231.5 377.167,231.5 377.5,231.5C 377.204,233.403 376.537,235.07 375.5,236.5C 375.5,235.833 375.167,235.5 374.5,235.5C 374.989,234.005 375.655,232.671 376.5,231.5 Z"/></g>
<g><path style="opacity:1" fill="#ececec" d="M 343.5,237.5 C 347.846,237.334 352.179,237.501 356.5,238C 364.82,239.548 365.153,241.215 357.5,243C 353.5,243.667 349.5,243.667 345.5,243C 337.555,242.34 336.888,240.507 343.5,237.5 Z"/></g>
<g><path style="opacity:0.625" fill="#cccccc" d="M 107.5,311.5 C 109.19,311.856 110.19,312.856 110.5,314.5C 108.81,314.144 107.81,313.144 107.5,311.5 Z"/></g>
<g><path style="opacity:1" fill="#dfdfdf" d="M 124.5,330.5 C 123.833,330.5 123.5,330.833 123.5,331.5C 118.34,328.755 113.006,326.255 107.5,324C 104.722,321.397 103.056,318.23 102.5,314.5C 104.199,314.34 105.866,314.506 107.5,315C 112.12,321.46 117.787,326.627 124.5,330.5 Z"/></g>
<g><path style="opacity:1" fill="#858585" d="M 128.5,316.5 C 126.167,316.5 123.833,316.5 121.5,316.5C 121.811,315.522 122.478,314.855 123.5,314.5C 125.336,315.028 127.003,315.694 128.5,316.5 Z"/></g>
<g><path style="opacity:1" fill="#858585" d="M 111.5,315.5 C 112.833,316.167 113.833,317.167 114.5,318.5C 112.5,318.5 111.5,317.5 111.5,315.5 Z"/></g>
<g><path style="opacity:0.651" fill="#e3e3e3" d="M 128.5,316.5 C 135.466,317.421 142.133,319.088 148.5,321.5C 141.564,320.583 134.898,318.917 128.5,316.5 Z"/></g>
<g><path style="opacity:1" fill="#aaaaaa" d="M 114.5,318.5 C 115.833,319.5 117.167,320.5 118.5,321.5C 119.303,322.423 119.47,323.423 119,324.5C 116.873,322.886 115.373,320.886 114.5,318.5 Z"/></g>
<g><path style="opacity:1" fill="#fbfbfb" d="M 135.5,339.5 C 137.013,338.691 138.68,338.524 140.5,339C 139.09,337.628 137.423,336.795 135.5,336.5C 131.304,335.215 127.304,333.548 123.5,331.5C 123.5,330.833 123.833,330.5 124.5,330.5C 128.414,330.847 132.414,332.014 136.5,334C 139.554,334.821 142.554,334.655 145.5,333.5C 138.747,331.65 132.081,329.483 125.5,327C 121.836,324.123 121.669,321.29 125,318.5C 129.243,319.803 133.41,321.303 137.5,323C 152.307,324.533 166.973,326.867 181.5,330C 188.924,333.288 195.091,338.121 200,344.5C 204.667,371.168 209.334,397.835 214,424.5C 216.412,448.72 214.079,472.386 207,495.5C 204.384,502.955 199.217,507.288 191.5,508.5C 181.926,508.287 173.759,504.953 167,498.5C 161.393,487.857 158.893,476.523 159.5,464.5C 159.576,454.707 160.743,445.04 163,435.5C 167.337,421.822 171.67,408.156 176,394.5C 177.312,385.865 177.645,377.199 177,368.5C 175.269,366.383 173.102,364.883 170.5,364C 158.6,362.145 147.267,358.478 136.5,353C 131.867,349.868 128.534,345.701 126.5,340.5C 127.167,340.167 127.833,339.833 128.5,339.5C 133.289,341.728 137.955,344.228 142.5,347C 147.837,349.175 153.17,350.341 158.5,350.5C 154.536,347.25 149.869,345.417 144.5,345C 141.102,343.643 138.102,341.81 135.5,339.5 Z"/></g>
<g><path style="opacity:1" fill="#e9e9e9" d="M 105.5,326.5 C 107.199,326.34 108.866,326.506 110.5,327C 116.082,330.289 121.748,333.289 127.5,336C 123.705,337.064 122.539,339.564 124,343.5C 125.793,346.295 127.96,348.795 130.5,351C 117.757,347.425 109.424,339.258 105.5,326.5 Z"/></g>
<g><path style="opacity:0.999" fill="#fafafa" d="M 416.5,514.5 C 409.987,518.485 403.321,519.152 396.5,516.5C 398.792,516.756 400.959,516.423 403,515.5C 403.008,492.784 404.008,470.117 406,447.5C 408.202,445.155 409.702,442.489 410.5,439.5C 425.969,415.917 441.469,392.251 457,368.5C 458.174,364.954 458.84,361.287 459,357.5C 459.635,356.034 460.469,354.7 461.5,353.5C 467.709,348.895 474.376,345.061 481.5,342C 484.09,337.892 487.756,335.725 492.5,335.5C 492.49,341.869 490.156,347.202 485.5,351.5C 484.554,351.013 483.554,350.68 482.5,350.5C 480.627,350.482 480.294,350.982 481.5,352C 501.155,357.935 519.321,354.768 536,342.5C 536.315,343.908 535.982,345.241 535,346.5C 529.346,352.244 522.513,355.744 514.5,357C 525.521,357.87 535.688,355.37 545,349.5C 545.507,350.996 545.007,352.163 543.5,353C 536.884,357.668 529.884,361.335 522.5,364C 530.253,364.564 537.919,364.231 545.5,363C 542.167,364.333 538.833,365.667 535.5,367C 520.29,368.986 505.29,371.986 490.5,376C 484.709,378.98 479.543,382.813 475,387.5C 466.693,400.447 459.693,414.114 454,428.5C 447.54,446.877 440.874,465.21 434,483.5C 428.649,494.212 422.816,504.545 416.5,514.5 Z"/></g>
<g><path style="opacity:1" fill="#7a7a7a" d="M 135.5,336.5 C 137.423,336.795 139.09,337.628 140.5,339C 138.68,338.524 137.013,338.691 135.5,339.5C 131.582,338.475 131.582,337.475 135.5,336.5 Z"/></g>
<g><path style="opacity:1" fill="#1c1c1c" d="M 173.5,340.5 C 180.367,339.437 186.367,341.104 191.5,345.5C 191.333,345.833 191.167,346.167 191,346.5C 184.416,342.741 177.416,341.741 170,343.5C 169.5,343.333 169,343.167 168.5,343C 170.315,342.243 171.981,341.41 173.5,340.5 Z"/></g>
<g><path style="opacity:0.892" fill="#eaeaea" d="M 539.5,341.5 C 541.727,342.401 542.727,344.067 542.5,346.5C 540.003,349.082 537.003,350.582 533.5,351C 536.119,348.216 538.119,345.049 539.5,341.5 Z"/></g>
<g><path style="opacity:1" fill="#efefef" d="M 410.5,439.5 C 408.907,440.348 407.74,441.681 407,443.5C 406.833,442 406.667,440.5 406.5,439C 407.712,431.197 408.712,423.363 409.5,415.5C 415.04,412.859 420.707,411.526 426.5,411.5C 420.721,420.604 415.387,429.938 410.5,439.5 Z"/></g>
<g><path style="opacity:1" fill="#dddddd" d="M 161.5,411.5 C 163.696,411.565 165.696,412.232 167.5,413.5C 164.696,421.079 162.196,428.746 160,436.5C 159.904,428.142 160.404,419.808 161.5,411.5 Z"/></g>
</svg>
