<?xml version="1.0" standalone="no"?>
<!DOCTYPE svg PUBLIC "-//W3C//DTD SVG 20010904//EN"
 "http://www.w3.org/TR/2001/REC-SVG-20010904/DTD/svg10.dtd">
<svg version="1.0" xmlns="http://www.w3.org/2000/svg"
 width="288.000000pt" height="288.000000pt" viewBox="0 0 288.000000 288.000000"
 preserveAspectRatio="xMidYMid meet">

<g transform="translate(0.000000,288.000000) scale(0.100000,-0.100000)"
fill="#000000" stroke="none">
<path d="M1110 2284 c-30 -8 -73 -27 -94 -42 -40 -27 -92 -98 -102 -139 -4
-13 -12 -23 -19 -23 -27 0 -172 -82 -234 -133 -109 -88 -139 -182 -112 -353 8
-55 8 -80 -4 -124 -23 -85 -19 -137 15 -204 19 -37 30 -74 30 -101 0 -60 45
-142 101 -185 50 -38 122 -128 179 -224 44 -75 140 -174 204 -211 202 -117
500 -118 684 -2 76 47 156 130 207 211 91 146 139 375 117 550 -9 70 -8 98 4
158 18 84 14 144 -17 243 -86 278 -284 465 -582 550 -167 47 -277 56 -377 29z
m170 -620 c68 -21 119 -27 254 -35 94 -5 177 -11 185 -13 9 -3 35 -10 58 -16
31 -8 41 -15 37 -25 -5 -11 1 -15 20 -15 15 0 41 -8 59 -17 32 -17 32 -17 7
-21 -36 -5 -123 -33 -137 -45 -35 -27 3 -33 61 -11 16 6 18 4 13 -10 -7 -18 8
-55 27 -68 42 -29 101 11 94 62 -8 54 15 29 42 -45 35 -94 29 -310 -11 -442
-69 -226 -219 -383 -410 -428 -84 -20 -244 -19 -323 1 -33 9 -86 29 -117 46
-68 36 -170 124 -163 141 2 7 -25 59 -60 115 -35 57 -67 115 -70 128 -4 15
-16 26 -34 30 -76 16 -119 51 -146 116 -21 49 -20 84 3 133 23 49 65 88 110
104 33 11 37 9 68 -21 19 -18 53 -72 76 -120 41 -86 61 -105 71 -70 17 59 66
331 66 367 0 24 -5 67 -11 95 -6 28 -9 53 -6 56 2 2 30 -2 63 -11 120 -31 176
-11 92 33 -48 25 -39 23 82 -14z"/>
<path d="M1416 1564 c-21 -12 -27 -21 -23 -39 2 -15 -1 -26 -10 -29 -29 -11
-1 -28 36 -22 37 6 37 6 33 -28 -5 -40 18 -66 57 -66 35 0 61 28 61 64 0 23 3
27 18 21 44 -17 72 -18 72 -2 0 24 -128 61 -191 55 -39 -4 -47 -2 -38 8 11 14
33 19 117 29 28 4 52 11 52 16 0 16 -152 10 -184 -7z"/>
<path d="M1685 1298 c-3 -8 8 -40 25 -72 24 -47 30 -70 30 -122 0 -57 2 -64
20 -64 28 0 35 40 22 113 -17 90 -82 186 -97 145z"/>
<path d="M771 1241 c-10 -7 -12 -20 -7 -49 11 -71 23 -94 49 -90 19 3 22 9 21
43 0 42 -22 96 -39 102 -5 1 -16 -1 -24 -6z"/>
<path d="M1445 870 c-12 -19 16 -37 79 -49 142 -27 306 0 278 47 -7 10 -22 9
-76 -5 -58 -14 -80 -15 -150 -5 -44 6 -91 14 -102 18 -12 3 -25 1 -29 -6z"/>
</g>
</svg>
