<?xml version="1.0" standalone="no"?>
<!DOCTYPE svg PUBLIC "-//W3C//DTD SVG 20010904//EN"
 "http://www.w3.org/TR/2001/REC-SVG-20010904/DTD/svg10.dtd">
<svg version="1.0" xmlns="http://www.w3.org/2000/svg"
 width="184.000000pt" height="185.000000pt" viewBox="0 0 184.000000 185.000000"
 preserveAspectRatio="xMidYMid meet">

<g transform="translate(0.000000,185.000000) scale(0.100000,-0.100000)"
fill="#000000" stroke="none">
<path d="M1060 1714 c-39 -34 -64 -82 -91 -180 -12 -44 -24 -87 -26 -97 -4
-14 -12 -17 -32 -12 -33 7 -96 -14 -293 -95 l-77 -32 -48 31 c-26 17 -66 40
-88 51 -50 24 -132 26 -164 4 -22 -16 -23 -21 -18 -88 3 -39 18 -102 32 -141
15 -38 30 -83 35 -100 4 -16 16 -52 25 -78 15 -41 16 -57 6 -103 -6 -31 -20
-69 -31 -85 -20 -27 -26 -29 -82 -29 -34 0 -90 -5 -125 -11 -72 -13 -70 -5
-31 -123 42 -128 107 -235 207 -340 149 -155 334 -249 549 -277 118 -16 167
-7 216 37 35 32 38 38 32 75 -7 46 2 49 45 16 23 -16 44 -22 80 -21 59 1 96
24 122 77 21 41 12 75 -9 36 -7 -13 -14 -23 -16 -21 -2 2 -11 0 -22 -4 -20 -8
-36 9 -36 40 0 18 1 18 18 3 24 -22 42 -5 42 39 0 18 4 35 9 38 5 3 11 21 13
40 3 28 1 33 -9 24 -22 -18 -28 -1 -25 72 2 48 -2 78 -13 100 -9 17 -13 35
-10 40 10 16 33 12 44 -7 19 -35 24 -2 6 38 -18 38 -21 75 -12 124 2 13 13 21
29 23 14 2 36 14 48 27 22 23 22 26 7 57 -8 18 -17 47 -19 63 -2 24 1 30 17
30 11 0 26 4 33 8 16 11 29 2 47 -33 19 -36 14 -187 -8 -250 -9 -25 -19 -81
-22 -125 -8 -113 -11 -134 -18 -141 -3 -3 -3 -12 -1 -19 3 -7 1 -16 -5 -19 -6
-4 -7 -14 -4 -23 5 -13 2 -15 -11 -10 -14 6 -16 3 -11 -14 5 -15 2 -22 -14
-26 -17 -4 -18 -8 -8 -25 9 -16 9 -22 0 -25 -7 -3 -13 -13 -13 -23 0 -10 -9
-35 -21 -54 l-20 -35 27 -17 c26 -17 28 -17 68 5 63 36 126 85 122 96 -2 6 1
22 5 38 4 15 4 27 0 27 -4 0 -6 14 -3 30 2 17 -2 37 -9 46 -16 19 -22 278 -8
306 6 10 5 19 -1 23 -10 6 -7 86 4 104 4 5 2 12 -3 15 -5 4 -5 21 1 43 11 46
11 78 -1 101 -5 9 -14 42 -20 73 -8 36 -27 79 -54 119 -23 34 -49 73 -58 87
-9 13 -19 45 -22 71 -3 26 -17 72 -31 102 -14 30 -26 63 -26 73 0 28 -88 206
-115 233 -31 31 -66 30 -105 -2z m44 -318 c17 -65 15 -75 -9 -55 -62 53 -74
79 -59 136 9 32 38 34 46 3 4 -14 14 -52 22 -84z m-714 -140 c8 -3 3 -4 -12
-1 -20 4 -31 -1 -48 -22 -11 -14 -17 -29 -12 -32 12 -9 42 -91 33 -91 -15 0
-41 37 -47 66 -8 41 30 108 54 95 10 -4 24 -11 32 -15z m90 -22 c0 -2 -7 -4
-15 -4 -8 0 -15 4 -15 10 0 5 7 7 15 4 8 -4 15 -8 15 -10z m21 -41 c7 -19 7
-28 -3 -34 -18 -11 -51 10 -44 28 3 8 6 19 6 24 0 21 31 7 41 -18z m617 -169
c2 -11 -6 -28 -17 -38 -17 -15 -23 -16 -36 -6 -11 9 -12 17 -3 34 21 40 51 45
56 10z m-738 -14 c0 -5 -4 -10 -9 -10 -6 0 -13 5 -16 10 -3 6 1 10 9 10 9 0
16 -4 16 -10z m820 -54 c0 -3 -4 -8 -10 -11 -5 -3 -10 -1 -10 4 0 6 5 11 10
11 6 0 10 -2 10 -4z m-347 -68 c14 -22 -7 -48 -34 -41 -23 6 -43 38 -34 54 10
15 56 7 68 -13z m-245 -245 c3 -51 3 -51 42 -58 21 -4 63 -4 93 0 48 6 56 4
84 -19 25 -21 33 -37 38 -78 4 -29 12 -57 19 -63 15 -15 100 -20 91 -5 -3 5 1
10 10 10 17 0 17 2 -2 48 -3 6 0 12 6 12 6 0 18 -17 27 -37 9 -21 22 -50 30
-65 7 -16 9 -28 4 -28 -6 0 -10 -7 -10 -16 0 -8 -5 -12 -11 -8 -6 3 -15 0 -20
-7 -7 -10 -11 -11 -17 -2 -4 6 -20 15 -36 19 -16 4 -56 31 -88 61 -32 29 -64
53 -72 53 -30 0 -26 -20 13 -57 21 -21 48 -54 58 -73 10 -19 25 -36 33 -38 8
-2 17 -7 20 -11 3 -4 14 -11 25 -15 20 -7 20 -7 1 -18 -13 -7 -21 -8 -23 -1
-2 6 -15 8 -30 5 -19 -4 -24 -2 -18 8 4 6 -5 4 -19 -5 l-27 -18 6 25 c6 22 3
26 -24 31 -16 4 -45 22 -65 42 -19 19 -40 35 -47 35 -13 0 -72 40 -78 53 -2 4
-14 12 -27 17 -16 6 -24 17 -24 33 0 28 -44 116 -66 132 -21 15 -2 65 25 65
10 0 24 7 31 15 25 31 45 13 48 -42z m542 -403 c0 -5 -9 -14 -20 -20 -11 -6
-20 -9 -20 -6 0 2 -3 11 -6 20 -5 12 0 16 20 16 14 0 26 -4 26 -10z m40 -25
c7 -9 10 -18 7 -21 -10 -11 -37 5 -37 21 0 19 14 19 30 0z m-150 -55 c0 -5 -2
-10 -4 -10 -3 0 -8 5 -11 10 -3 6 -1 10 4 10 6 0 11 -4 11 -10z"/>
</g>
</svg>
