<svg viewBox="0 0 1080 1080" fill="none" xmlns="http://www.w3.org/2000/svg">        <defs>    <filter id="filter" x="-20%" y="-20%" width="140%" height="140%" filterUnits="objectBoundingBox" primitiveUnits="userSpaceOnUse" color-interpolation-filters="linearRGB">      <feMorphology operator="dilate" radius="20 20" in="SourceAlpha" result="morphology"/>      <feFlood flood-color="#ffffff" flood-opacity="1" result="flood"/>      <feComposite in="flood" in2="morphology" operator="in" result="composite"/>      <feMerge result="merge">            <feMergeNode in="composite" result="mergeNode"/>        <feMergeNode in="SourceGraphic" result="mergeNode1"/>        </feMerge>    </filter>  </defs>        <g id="notion-avatar" filter="url(#filter)">          <g id="notion-avatar-face" fill="#ffffff" transform="scale(-1,1) translate(-1080, 0)">            <title>Face/ 5</title>    <g id="Face/-5" stroke="none" stroke-width="1" fill-rule="evenodd" stroke-linecap="round" stroke-linejoin="round">        <path d="M532,379 C664.54834,379 772,486.45166 772,619 C772,751.54834 704.54834,859 532,859 C405.842528,859 335.866563,801.559592 307.358668,718.866959 C265.336704,716.464588 232,681.625396 232,639 C232,599.134956 261.158843,566.080325 299.312086,560.00055 C325.599297,455.979213 419.809919,379 532,379 Z M295.858895,624.545187 L304.141105,655.454813" id="Path" stroke="#000000" stroke-width="24"/>    </g>      </g><g id="notion-avatar-nose" transform="scale(-1,1) translate(-1080, 0)">            <title>Nose/ 4</title>    <g id="Nose/-4" stroke="none" stroke-width="1" fill="none" fill-rule="evenodd" stroke-linecap="round" stroke-linejoin="round">        <path d="M636.843426,596.000252 C661.659687,637.453214 673.277876,666.226337 671.697992,682.319621 C670.118108,698.412905 655.181344,703.444023 626.8877,697.412976" id="Line" stroke="#000000" stroke-width="16" transform="translate(649.363766, 647.939652) rotate(1.032339) translate(-649.363766, -647.939652) "/>    </g>      </g><g id="notion-avatar-mouth" transform="scale(-1,1) translate(-1080, 0)">            <title>Mouth/ 8</title>    <g id="Mouth/-8" stroke="none" stroke-width="1" fill="none" fill-rule="evenodd" stroke-linecap="round" stroke-linejoin="round">        <g id="Group" transform="translate(518.000000, 729.000000)" stroke="#000000" stroke-width="16">            <path d="M-3.69482223e-13,40.2906038 C11.1513858,37.2521964 19.1513858,34.588032 24,32.2981106 C28.8486142,30.0081891 35.9892516,25.8365332 45.4219123,19.7831427 C62.4309568,8.98264352 73.6236526,2.98203532 79,1.78131814 C84.3763474,0.580600965 91.3763474,2.51817509 100,7.59404051 C112,-1.12504304 123,-2.33602686 133,3.96108903 C143,10.2582049 145.333333,20.4304691 140,34.4778814 C145.333333,41.2593909 144.666667,48.0409003 138,54.8224097 C128,64.9946738 107,72.2605768 79,69.3542156 C66.6893996,68.0763924 52.3996983,62.8419921 34,54.8224097 C27.6667209,52.0620246 16.3333876,47.2180893 -3.69482223e-13,40.2906038 Z" id="Path"/>            <path d="M12,43 C54.2826578,36.3890991 82.9493244,32.7224324 98,32 C113.050676,31.2775676 126.050676,32.9442342 137,37" id="Path"/>        </g>    </g>      </g><g id="notion-avatar-eyes" transform="scale(-1,1) translate(-1080, 0)">            <title>Eyes/ 4</title>    <g id="Eyes/-4" stroke="none" stroke-width="1" fill="none" fill-rule="evenodd">        <path d="M570,516 C583.254834,516 594,526.745166 594,540 C594,553.254834 583.254834,564 570,564 C556.745166,564 546,553.254834 546,540 C546,526.745166 556.745166,516 570,516 Z M708,516 C721.254834,516 732,526.745166 732,540 C732,553.254834 721.254834,564 708,564 C694.745166,564 684,553.254834 684,540 C684,526.745166 694.745166,516 708,516 Z M562,526 C558.686292,526 556,528.686292 556,532 C556,535.313708 558.686292,538 562,538 C565.313708,538 568,535.313708 568,532 C568,528.686292 565.313708,526 562,526 Z M700,526 C696.686292,526 694,528.686292 694,532 C694,535.313708 696.686292,538 700,538 C703.313708,538 706,535.313708 706,532 C706,528.686292 703.313708,526 700,526 Z" id="Combined-Shape" fill="#000000"/>    </g>      </g><g id="notion-avatar-eyebrows" transform="scale(-1,1) translate(-1080, 0)">            <title>Eyebrows/ 6</title>    <g id="Eyebrows/-6" stroke="none" stroke-width="1" fill="none" fill-rule="evenodd" stroke-linecap="round" stroke-linejoin="round">        <path d="M620,495.140162 C589.850248,491.823271 565.234864,491.823271 546.153846,495.140162 C527.072829,498.457053 511.688213,505.410333 500,516 C517.257672,497.488903 532.642287,487.058984 546.153846,484.710243 C559.665405,482.361502 584.280789,485.838142 620,495.140162 Z M658,495.140162 C693.719211,485.838142 718.334595,482.361502 731.846154,484.710243 C745.357713,487.058984 760.742328,497.488903 778,516 C766.311787,505.410333 750.927171,498.457053 731.846154,495.140162 C712.765136,491.823271 688.149752,491.823271 658,495.140162 Z" id="Combined-Shape" stroke="#000000" stroke-width="8" fill="#000000"/>    </g>      </g><g id="notion-avatar-glasses" transform="scale(-1,1) translate(-1080, 0)">            <title>Glasses/ 5</title>    <g id="Glasses/-5" stroke="none" stroke-width="1" fill="none" fill-rule="evenodd" stroke-linecap="round" stroke-linejoin="round">        <g id="Group" transform="translate(289.000000, 500.000000)" stroke="#000000">            <path d="M339.818182,40.2109589 C338.074175,42.9080712 336.862054,47.8943725 336.181818,55.169863 L327.454545,55.169863 C324.545455,28.1013699 305.393939,14.0922374 270,13.1424658 C240.424242,11.2429224 222.727273,23.1150685 216.909091,48.7589041 L205.272727,48.7589041 L190,33.8 L190,10.2931507 C222.484848,2.22009132 249.151515,-1.10410959 270,0.320547945 C285.225486,1.36096427 303.25963,5.13798521 324.62746,9.93254373 L332.545455,11.7178082 C336.214681,12.54746 342.032863,13.4972317 350,14.5671233 L352.073632,14.2846662 C358.984501,13.3293325 364.111473,12.4737132 367.454545,11.7178082 L376.341511,9.71531602 C397.286215,5.02415827 415.005203,1.34520038 430,0.320547945 C450.64,-1.08986301 476.9824,2.15408219 509.0272,10.0523836 L510,10.2931507 L510,33.8 L494.727273,48.7589041 L483.090909,48.7589041 C477.272727,23.1150685 459.575758,11.2429224 430,13.1424658 C394.96,14.0827397 375.8392,27.8224932 372.6376,54.361726 L372.545455,55.169863 L363.818182,55.169863 L363.730382,54.2723496 C363.036013,47.4828217 361.853158,42.7956915 360.181818,40.2109589 C358.482529,37.5830034 355.216835,35.4868176 350.384736,33.9224017 L350,33.8 C344.956128,35.3768603 341.562189,37.5138466 339.818182,40.2109589 Z" id="Path" stroke-width="4" fill="#000000"/>            <path d="M216.909091,48.4383562 C216.909091,85.4794521 234.606061,104 270,104 C305.393939,104 324.545455,87.6164384 327.454545,54.8493151" id="Path" stroke-width="6"/>            <path d="M372.545455,48.4383562 C372.545455,85.4794521 390.242424,104 425.636364,104 C461.030303,104 480.181818,87.6164384 483.090909,54.8493151" id="Path" stroke-width="6" transform="translate(427.818182, 76.219178) scale(-1, 1) translate(-427.818182, -76.219178) "/>            <polygon id="Path" stroke-width="4" fill="#000000" points="199 9 4 41 0 50 199 30"/>        </g>    </g>      </g><g id="notion-avatar-hair" transform="scale(-1,1) translate(-1080, 0)">        <g id="Hairstyle/ 57"><path id="Path" fill-rule="evenodd" clip-rule="evenodd" d="M487 190.996L490.414 190.995C515.198 191.026 598.9 192.55 673 241C751 292 798 423 798 561C798 699 771 758.334 721 873C721 873 764 662.714 764 639C764 568 753 507 708 461C695.022 447.734 675.35 433.069 648.985 417.006C627.277 462.471 602.282 493.802 574 511C500 556 451 526 417 561C394.333 584.334 375 610.667 359 640V611L358.079 609.218C343.026 580.406 327.333 566 311 566C286 566 232 573 232 639C232 683 258.667 709.667 312 719C325.685 746.66 341.351 769.66 359 788C371.109 800.584 232 738 214 639C196 540 201.661 471.698 232 399C262.651 325.553 297.063 277.471 358.282 237.331C402.919 208.064 449.049 190.996 487 190.996Z" fill="black" stroke="black" stroke-width="12" stroke-linecap="round" stroke-linejoin="round"/></g>      </g><g id="notion-avatar-accessories" transform="scale(-1,1) translate(-1080, 0)">            <title>Accessories/ 0</title>    <g id="Accessories/-0" stroke="none" stroke-width="1" fill="none" fill-rule="evenodd"/>      </g><g id="notion-avatar-details" transform="scale(-1,1) translate(-1080, 0)">            <title>Details/ 0</title>    <g id="Details/-0" stroke="none" stroke-width="1" fill="none" fill-rule="evenodd"/>      </g><g id="notion-avatar-beard" transform="scale(-1,1) translate(-1080, 0)">            <title>Beard/ 5</title>    <g id="Beard/-5" stroke="none" stroke-width="1" fill="none" fill-rule="evenodd" stroke-linecap="round" stroke-linejoin="round">        <g id="Group" transform="translate(488.471351, 711.000000)" stroke="#000000" stroke-width="16">            <line x1="148.935635" y1="0" x2="148.935635" y2="24" id="Path" transform="translate(148.935635, 12.000000) rotate(5.000000) translate(-148.935635, -12.000000) "/>            <line x1="175.027373" y1="0" x2="175.027373" y2="24" id="Path" transform="translate(175.027373, 12.000000) scale(-1, 1) rotate(5.000000) translate(-175.027373, -12.000000) "/>            <line x1="122.219689" y1="2" x2="122.219689" y2="26" id="Path" transform="translate(122.219689, 14.000000) rotate(8.000000) translate(-122.219689, -14.000000) "/>            <line x1="201.743319" y1="3" x2="201.743319" y2="27" id="Path" transform="translate(201.743319, 15.000000) scale(-1, 1) rotate(8.000000) translate(-201.743319, -15.000000) "/>            <line x1="93.7932385" y1="7" x2="93.7932385" y2="27" id="Path" transform="translate(93.793238, 17.000000) rotate(16.000000) translate(-93.793238, -17.000000) "/>            <line x1="230.16977" y1="12" x2="230.16977" y2="32" id="Path" transform="translate(230.169770, 22.000000) scale(-1, 1) rotate(16.000000) translate(-230.169770, -22.000000) "/>            <line x1="63.7471773" y1="6.59518528" x2="63.4283745" y2="24.1083027" id="Path" transform="translate(63.928374, 15.108303) rotate(19.000000) translate(-63.928374, -15.108303) "/>            <line x1="34.1523593" y1="17.8126967" x2="35.8847521" y2="35.4478552" id="Path" transform="translate(35.358708, 26.591101) rotate(22.000000) translate(-35.358708, -26.591101) "/>            <line x1="5.5" y1="32.7139984" x2="9.44270186" y2="57.1419951" id="Path" transform="translate(7.500000, 45.213998) rotate(22.000000) translate(-7.500000, -45.213998) "/>        </g>    </g>      </g>        </g>        </svg>