<?xml version="1.0" standalone="no"?>
<!DOCTYPE svg PUBLIC "-//W3C//DTD SVG 20010904//EN"
 "http://www.w3.org/TR/2001/REC-SVG-20010904/DTD/svg10.dtd">
<svg version="1.0" xmlns="http://www.w3.org/2000/svg"
 width="600.000000pt" height="600.000000pt" viewBox="0 0 600.000000 600.000000"
 preserveAspectRatio="xMidYMid meet">

<g transform="translate(0.000000,600.000000) scale(0.100000,-0.100000)"
fill="#000000" stroke="none">
<path d="M3531 5293 c-96 -34 -164 -137 -219 -333 l-28 -100 -55 -33 c-29 -18
-96 -63 -147 -101 -51 -38 -95 -66 -97 -64 -3 2 9 38 27 79 54 128 70 221 48
274 -7 18 -8 17 -14 -10 -4 -16 -12 -50 -17 -75 -27 -119 -108 -269 -187 -343
l-40 -39 -21 56 c-11 31 -32 95 -45 144 -78 277 -168 452 -257 497 -62 32
-150 8 -204 -57 -81 -95 -138 -312 -152 -573 -15 -299 65 -589 211 -767 69
-83 179 -158 278 -188 l74 -23 -50 -27 c-30 -15 -62 -42 -78 -65 l-27 -40 11
-128 c9 -96 9 -202 1 -414 l-12 -286 39 -56 c21 -31 45 -63 54 -70 30 -25 115
-18 193 17 39 18 78 32 86 32 30 0 37 -152 12 -293 -19 -107 -53 -202 -121
-339 l-54 -108 -43 16 c-96 37 -297 139 -527 269 -135 76 -278 153 -319 172
-88 40 -230 83 -275 83 -26 -1 -16 -8 69 -53 172 -90 236 -135 540 -383 257
-209 298 -238 400 -289 67 -34 80 -44 83 -67 2 -20 -4 -33 -24 -50 -15 -13
-43 -36 -61 -52 -23 -20 -54 -70 -94 -155 -122 -255 -123 -256 -126 -176 -2
57 -19 99 -51 128 -19 18 -24 18 -96 3 -43 -9 -95 -13 -119 -10 -40 6 -45 4
-79 -34 -93 -103 -129 -257 -93 -392 54 -205 206 -360 353 -360 l55 0 221 218
c247 242 402 372 553 462 100 60 104 61 139 50 51 -17 196 -8 268 17 l58 21
62 -25 c147 -60 309 -175 501 -356 216 -204 266 -236 363 -237 48 0 56 4 97
41 73 67 126 206 156 405 l12 81 45 12 c26 7 57 24 74 43 26 28 29 37 26 87
-3 54 -4 57 -43 76 -30 15 -60 20 -124 20 -78 0 -86 2 -114 28 -34 31 -66 42
-102 33 -38 -10 -60 -41 -83 -119 -25 -81 -35 -102 -49 -94 -6 4 -27 48 -49
99 -32 78 -49 104 -104 158 -36 36 -100 94 -142 128 -89 71 -140 135 -165 207
-16 45 -18 93 -18 456 l0 406 39 -33 c59 -51 137 -77 226 -78 84 0 122 15 163
63 39 47 50 94 44 185 -6 98 -26 154 -105 289 -33 57 -63 114 -67 128 -4 18 5
49 34 108 66 136 84 261 55 382 -6 25 -3 27 58 42 35 9 120 24 189 33 152 20
200 37 81 29 -78 -5 -225 -32 -302 -55 -47 -14 -50 -13 -50 9 0 11 -12 33 -26
50 -14 17 -24 38 -22 48 2 10 50 41 117 77 63 33 109 62 102 64 -7 2 -71 -26
-142 -62 -110 -57 -214 -96 -254 -96 -6 0 -10 48 -11 133 0 110 -5 150 -28
240 -27 106 -27 110 -12 171 17 67 20 116 9 156 -5 18 -10 3 -19 -58 -11 -76
-25 -114 -39 -101 -2 3 -9 61 -15 129 -10 113 -32 202 -46 187 -6 -6 12 -178
22 -210 6 -18 4 -18 -26 -2 -17 9 -59 19 -93 23 l-62 7 -28 55 c-36 72 -52
158 -71 370 -19 209 -34 300 -50 299 -6 0 -31 -8 -55 -16z m53 -55 c3 -13 10
-95 16 -183 11 -160 34 -328 51 -374 5 -13 8 -25 6 -27 -2 -2 -21 2 -43 8 -44
13 -263 16 -337 4 l-47 -7 30 48 c17 26 33 64 36 84 8 47 10 50 67 78 44 22
68 52 30 36 -10 -4 -24 -9 -30 -12 -18 -7 -17 29 2 102 32 123 97 219 169 251
42 18 45 17 50 -8z m-1080 -59 c53 -62 99 -165 175 -391 38 -113 86 -237 105
-276 33 -65 142 -199 154 -188 2 3 -21 39 -53 80 -31 42 -55 81 -52 89 3 7 30
50 61 95 61 91 76 82 26 -14 l-30 -59 84 90 c94 99 119 102 31 4 -31 -34 -54
-64 -52 -66 3 -2 65 14 140 36 185 54 358 85 391 69 25 -11 44 -44 32 -55 -3
-3 -19 0 -35 7 -36 15 -68 8 -106 -21 -36 -29 -75 -114 -74 -164 0 -37 1 -38
11 -15 64 152 92 183 156 178 l37 -3 -2 -65 c-2 -74 -24 -144 -55 -177 -59
-63 -37 -297 46 -498 35 -83 32 -60 -10 86 -47 164 -56 293 -26 362 20 45 22
46 49 36 105 -36 184 -192 182 -359 -1 -49 -2 -52 -11 -27 -12 34 -37 32 -55
-3 -17 -34 -16 -121 2 -147 14 -20 13 -22 -27 -37 -57 -23 -91 -14 -106 28
-13 35 -99 123 -110 112 -3 -4 14 -26 38 -51 24 -25 41 -47 38 -50 -3 -3 -84
23 -179 58 -96 36 -187 67 -204 71 -28 6 -29 5 -11 -9 11 -8 26 -15 34 -15 8
0 51 -15 96 -34 45 -19 108 -42 141 -52 111 -31 155 -65 155 -121 0 -18 -3
-33 -7 -33 -5 0 -37 9 -71 20 -68 21 -141 28 -111 10 9 -5 47 -14 84 -19 38
-6 72 -14 76 -18 15 -15 -22 -70 -64 -94 -35 -19 -55 -23 -117 -22 -42 0 -95
8 -119 17 -24 9 -45 16 -47 16 -2 0 -4 -27 -4 -59 0 -129 -48 -67 -60 76 -4
54 -11 106 -15 116 -9 22 -135 107 -159 107 -32 0 -56 -21 -87 -76 -17 -30
-39 -59 -49 -64 -15 -8 -20 -2 -34 43 -38 123 -50 282 -21 293 10 4 -6 21 -53
54 -38 26 -76 60 -85 74 -24 36 -12 33 34 -9 48 -43 67 -44 104 -5 l28 29 -6
153 c-11 291 -75 522 -203 737 -72 121 -91 141 -143 148 l-44 6 22 19 c16 12
40 18 76 18 50 0 56 -3 89 -41z m-84 -71 c144 -180 270 -550 270 -792 0 -80
-21 -179 -40 -191 -5 -3 -26 2 -45 11 -49 23 -83 86 -111 202 -13 52 -26 97
-29 100 -3 3 -5 -24 -5 -59 0 -131 47 -254 126 -333 l41 -41 6 -117 c3 -77 11
-129 21 -149 9 -18 14 -34 12 -36 -8 -9 -104 20 -149 45 -95 51 -197 189 -258
346 -47 122 -68 219 -81 368 -24 275 25 553 118 675 39 51 64 45 124 -29z
m830 -369 c-7 -16 -30 -45 -53 -65 -44 -40 -180 -108 -185 -93 -2 5 15 30 37
54 23 25 41 51 41 60 0 8 6 15 14 15 8 0 45 24 83 54 66 52 68 53 71 29 2 -14
-2 -38 -8 -54z m341 -110 c16 -8 19 -17 14 -42 -10 -52 -57 -167 -66 -161 -20
12 1 104 22 104 5 0 0 15 -11 33 -27 43 -26 77 1 77 11 0 29 -5 40 -11z m91
-34 c23 -16 41 -38 47 -58 7 -25 9 -27 10 -9 1 26 29 41 41 23 4 -7 5 -44 2
-83 -6 -85 12 -88 22 -4 4 29 13 62 20 72 13 17 16 16 49 -17 l35 -35 -15 -55
c-12 -42 -15 -95 -13 -239 6 -305 5 -364 -2 -397 -9 -41 14 -51 67 -28 49 20
95 20 95 -1 0 -8 4 -13 9 -10 26 17 28 -93 2 -149 -23 -50 -58 -83 -108 -100
-32 -12 -39 -12 -48 0 -7 11 -16 7 -46 -20 -56 -50 -87 -52 -236 -16 -174 42
-190 41 -252 -11 -58 -50 -67 -83 -58 -209 6 -98 47 -193 100 -233 l35 -27 96
40 c97 42 151 50 200 31 30 -11 34 -35 9 -48 -10 -6 -43 -13 -73 -16 -51 -6
-54 -6 -36 9 35 27 -2 16 -84 -25 -57 -28 -92 -40 -123 -40 -78 0 -137 58
-163 159 -12 51 -29 57 -29 11 0 -17 -3 -30 -7 -30 -3 0 -22 15 -41 33 -33 30
-34 34 -21 57 21 40 16 99 -16 175 -29 68 -38 137 -21 163 7 11 19 11 69 2
137 -27 250 3 288 77 l21 41 52 -25 c29 -14 55 -22 58 -19 3 3 -14 15 -39 26
-63 28 -76 45 -53 70 23 25 40 25 76 -1 16 -11 35 -18 42 -16 6 3 -5 12 -25
21 -21 9 -38 19 -38 22 0 12 69 32 133 39 66 6 94 25 39 25 l-29 0 -6 123
c-10 217 -49 341 -131 420 l-44 44 39 91 c21 50 41 109 45 131 4 23 9 41 13
41 3 0 23 -11 43 -25z m288 -244 c0 -5 3 -18 6 -28 5 -16 4 -16 -10 1 -18 23
-20 36 -6 36 6 0 10 -4 10 -9z m-12 -75 c66 -59 88 -187 58 -334 -29 -145 -58
-178 -50 -59 6 87 -6 114 -35 80 l-19 -22 -6 27 c-3 15 -9 98 -12 186 l-7 158
24 -7 c13 -4 35 -17 47 -29z m202 -374 c0 -14 -49 -56 -57 -49 -3 4 4 18 17
32 24 25 40 32 40 17z m-84 -51 c-4 -6 -21 -11 -37 -11 -33 0 -31 16 5 30 23
9 42 -2 32 -19z m-386 -46 c0 -26 -4 -35 -17 -35 -13 0 -14 3 -5 12 7 7 12 22
12 35 0 13 2 23 5 23 3 0 5 -16 5 -35z m538 23 c21 -21 13 -34 -27 -46 -50
-16 -51 -15 -51 7 0 40 51 66 78 39z m-313 -26 c0 -18 -20 -15 -23 4 -3 10 1
15 10 12 7 -3 13 -10 13 -16z m205 -23 c0 -40 -15 -44 -40 -9 -12 17 -26 28
-31 25 -5 -4 -9 -2 -9 4 0 13 18 18 52 13 23 -4 28 -9 28 -33z m154 -16 c13
-32 7 -181 -8 -241 -20 -76 -43 -130 -95 -221 -22 -39 -36 -71 -32 -71 5 0 15
10 24 23 15 22 15 22 31 2 35 -42 117 -224 136 -299 52 -204 -2 -316 -152
-316 -67 0 -113 22 -208 95 -41 32 -76 59 -77 60 -7 4 -43 287 -45 348 l-1 72
-6 -62 c-7 -74 -17 -86 -42 -53 -11 14 -27 33 -36 44 -17 21 -10 44 34 109 23
32 31 37 52 32 66 -16 95 -79 111 -235 15 -147 27 -195 61 -231 28 -30 55 -35
31 -7 -6 8 -23 49 -38 93 -21 64 -28 105 -32 202 -5 119 -5 123 -31 139 -38
24 -81 66 -81 79 0 6 29 42 65 79 67 70 74 69 53 -7 -6 -24 -8 -52 -4 -63 6
-15 11 -7 22 35 17 64 57 121 115 164 41 30 41 49 0 27 -16 -8 -19 -8 -15 3 3
8 16 20 30 28 23 12 25 18 23 79 -3 64 -2 65 31 88 39 26 75 29 84 5z m-1360
-21 c2 -4 -4 -39 -15 -77 -21 -75 -25 -151 -9 -175 5 -8 10 -13 11 -10 0 3 4
44 8 92 10 119 49 161 97 107 16 -18 19 -34 17 -101 -3 -89 2 -103 77 -210 60
-86 69 -125 39 -178 -13 -22 -33 -47 -44 -54 -18 -12 -23 -28 -28 -83 -8 -80
-39 -199 -68 -255 -30 -58 -106 -136 -159 -163 -63 -32 -162 -52 -197 -39 -36
12 -70 74 -79 140 -3 30 3 132 16 252 22 194 22 204 6 314 -21 150 -20 196 4
235 20 34 38 46 82 57 26 6 27 5 18 -20 -32 -84 5 -200 100 -306 61 -69 63
-63 -55 -189 -46 -49 -92 -108 -103 -132 -25 -51 -41 -144 -23 -133 6 4 11 14
11 22 0 32 54 118 136 215 47 56 94 120 105 141 l20 39 -48 43 c-68 61 -113
152 -113 227 0 62 13 109 30 109 5 0 10 -23 10 -52 0 -91 17 -87 24 5 12 144
33 187 92 187 18 0 35 -4 38 -8z m1211 -100 c-4 -23 -28 -56 -78 -109 -39 -41
-73 -69 -75 -63 -3 7 21 36 51 65 48 46 56 59 62 102 3 26 11 59 17 73 l11 25
9 -30 c4 -16 6 -45 3 -63z m-195 -172 c0 -24 -34 -73 -96 -142 -36 -40 -80
-100 -99 -134 -30 -53 -65 -97 -65 -81 0 22 47 152 70 192 47 83 190 206 190
165z m-354 -153 c31 -28 37 -42 41 -84 5 -44 3 -52 -18 -67 -44 -30 -99 -17
-179 42 l-35 27 23 -32 c29 -41 28 -83 -2 -112 l-24 -23 -17 33 c-10 18 -24
69 -31 113 -14 79 -14 81 7 99 25 20 60 21 114 2 48 -18 45 -17 45 -5 0 6 -11
15 -25 20 -37 14 -31 20 20 20 37 0 52 -6 81 -33z m-346 -281 c100 -96 160
-136 203 -136 13 0 60 18 103 40 68 34 88 40 144 40 68 0 110 17 110 46 0 7
-16 32 -36 54 -23 25 -31 40 -22 40 46 0 118 -152 118 -249 l0 -33 -40 36
c-57 51 -87 49 -153 -13 -90 -84 -106 -85 -202 -12 -70 53 -88 61 -133 61
-104 0 -140 -97 -162 -441 -9 -134 -17 -183 -57 -335 -43 -166 -46 -188 -47
-309 -1 -111 3 -140 22 -200 22 -66 94 -188 127 -215 24 -20 124 -23 220 -7
221 39 387 188 461 416 l17 54 16 -39 c29 -72 60 -111 177 -220 77 -72 121
-120 131 -146 9 -22 28 -46 45 -56 36 -20 76 -95 84 -155 3 -26 -2 -75 -15
-131 -12 -49 -20 -90 -18 -92 1 -2 13 26 25 60 23 65 86 151 103 140 18 -11 9
-173 -16 -290 -14 -64 -25 -140 -25 -170 l0 -55 -32 23 c-48 33 -161 130 -284
242 -174 158 -290 234 -419 272 -33 10 -62 19 -64 21 -11 8 30 38 84 62 34 16
65 34 69 40 8 12 6 12 -114 -39 -112 -47 -204 -70 -307 -77 -97 -6 -113 0 -70
30 20 15 19 15 -18 1 -205 -82 -381 -212 -670 -495 -168 -165 -279 -259 -304
-259 -4 0 -7 90 -9 200 -3 166 -1 209 13 250 9 28 20 50 24 50 4 0 14 -26 21
-57 19 -86 41 -156 46 -150 3 3 -2 33 -10 67 -25 97 -22 119 28 186 24 32 60
100 80 149 58 144 172 302 276 381 52 40 62 61 12 25 -29 -20 -52 -27 -52 -15
0 23 45 150 116 331 46 116 93 249 104 295 27 112 36 259 21 339 l-13 63 43
81 c112 212 113 214 117 284 4 83 10 111 23 111 6 0 55 -43 109 -94z m145
-156 c14 -5 47 -29 73 -53 90 -84 111 -85 192 -13 33 30 75 59 92 65 29 10 33
9 69 -28 65 -69 83 -159 94 -471 10 -274 -18 -496 -78 -631 -55 -122 -155
-222 -296 -292 -71 -35 -96 -42 -157 -45 -40 -2 -89 1 -108 8 -114 37 -166
158 -166 385 0 135 10 211 45 370 14 61 32 182 40 270 26 272 47 364 96 416
29 31 59 36 104 19z m-1430 -644 c61 -29 199 -105 307 -169 202 -119 337 -190
421 -222 26 -10 47 -23 47 -30 0 -6 -10 -37 -23 -67 l-22 -56 -65 28 c-130 55
-227 121 -475 321 -93 75 -210 165 -260 199 -103 71 -86 70 70 -4z m2676 -827
c6 -13 9 -50 7 -90 -2 -38 0 -69 4 -69 14 0 29 41 31 87 2 43 5 47 32 55 35
10 119 -6 153 -28 19 -13 23 -22 20 -57 -4 -56 -44 -80 -134 -81 -67 -1 -81
-10 -39 -26 31 -12 31 -20 5 -172 -31 -187 -72 -268 -154 -307 -59 -29 -82
-27 -101 9 -22 42 -19 103 12 215 28 104 27 90 20 375 -3 82 18 110 83 110 40
0 51 -4 61 -21z m-2478 -149 c5 -4 3 -33 -3 -63 -19 -84 -5 -91 20 -10 21 69
24 73 56 79 21 4 49 1 72 -8 53 -20 54 -57 2 -206 -46 -133 -49 -168 -36 -366
l9 -129 -39 7 c-92 17 -196 119 -246 243 -19 49 -23 76 -23 168 0 99 3 115 27
165 15 31 44 75 64 99 31 36 41 41 63 36 14 -4 30 -10 34 -15z"/>
<path d="M3245 4525 c-33 -33 -45 -52 -45 -74 0 -16 5 -33 10 -36 6 -3 10 2
10 12 0 10 18 42 40 72 37 49 48 71 35 71 -3 0 -26 -20 -50 -45z"/>
<path d="M3158 3693 c17 -2 47 -2 65 0 17 2 3 4 -33 4 -36 0 -50 -2 -32 -4z"/>
<path d="M3824 3723 c-29 -6 -57 -37 -52 -60 2 -11 30 -32 72 -53 l69 -34 38
43 c25 28 39 53 39 71 0 24 -5 28 -37 34 -40 6 -94 6 -129 -1z m126 -23 c0
-13 -38 -28 -91 -36 -31 -5 -39 -4 -39 9 0 9 8 21 18 26 22 14 112 14 112 1z"/>
<path d="M1670 2590 c30 -16 66 -29 80 -30 20 0 13 6 -30 30 -30 16 -66 29
-80 29 -20 0 -14 -6 30 -29z"/>
<path d="M1390 2593 c58 -7 151 -29 208 -48 57 -19 106 -35 110 -35 3 0 -4 9
-17 21 -34 32 -235 79 -330 78 l-76 -1 105 -15z"/>
</g>
</svg>
