<svg xmlns="http://www.w3.org/2000/svg" version="1.1" xmlns:xlink="http://www.w3.org/1999/xlink" xmlns:svgjs="http://svgjs.dev/svgjs" width="1000" height="844" viewBox="0 0 1000 844"><g transform="matrix(1,0,0,1,-0.3488090241737041,0.2581046309405792)"><svg viewBox="0 0 387 327" data-background-color="#ffffff" preserveAspectRatio="xMidYMid meet" height="844" width="1000" xmlns="http://www.w3.org/2000/svg" xmlns:xlink="http://www.w3.org/1999/xlink"><g id="tight-bounds" transform="matrix(1,0,0,1,0.13514839122802869,-0.10000025393077294)"><svg viewBox="0 0 386.7298625164168 327.2" height="327.2" width="386.7298625164168"><g><svg viewBox="0 0 395.52 334.63705946552375" height="327.2" width="386.7298625164168"><g transform="matrix(1,0,0,1,0,224.5842820243128)"><svg viewBox="0 0 395.52 110.05277744121095" height="110.05277744121095" width="395.52"><g><svg viewBox="0 0 395.52 110.05277744121095" height="110.05277744121095" width="395.52" id="textblock"><g><svg viewBox="0 0 395.52 71.96683171054593" height="71.96683171054593" width="395.52"><g transform="matrix(1,0,0,1,0,0)"><svg width="395.52" viewBox="1.3301105499267578 -20.511260986328125 268.3820495605469 48.833473205566406" height="71.96683171054593" data-palette-color="#4a596d"><path d="M24.513-1.953l-0.757 3.662-14.709-3.041-2.484 12.016 17.078 3.531-0.757 3.663-21.554-4.457 7.016-33.932 21.329 4.41-0.762 3.682-16.853-3.485-2.256 10.909zM49.091 21.986l-5.239-15.022-8.04-1.271-2.189 13.848-4.534-0.717 5.41-34.225 11.33 1.791c3.852 0.609 6.676 1.956 8.472 4.043 1.804 2.081 2.44 4.8 1.91 8.158v0c-0.336 2.127-1.206 3.893-2.609 5.298-1.402 1.398-3.192 2.327-5.371 2.785v0l5.745 15.791-0.046 0.286zM38.446-10.97l-2.052 12.979 6.934 1.096c2.239 0.354 4.112 0.056 5.619-0.894 1.507-0.95 2.414-2.396 2.72-4.338v0c0.335-2.12-0.037-3.843-1.116-5.168-1.086-1.326-2.816-2.187-5.191-2.582v0zM68.369-10.441l-4.322 34.38-4.534-0.57 4.322-34.38zM94.621 15.629l4.583 0.395c-0.746 3.609-2.337 6.309-4.773 8.1-2.436 1.791-5.537 2.524-9.303 2.2v0c-4.078-0.351-7.22-2.097-9.425-5.239-2.206-3.134-3.098-7.152-2.676-12.054v0l0.286-3.317c0.276-3.208 1.094-5.978 2.453-8.311 1.352-2.339 3.138-4.069 5.355-5.189 2.211-1.121 4.701-1.562 7.471-1.324v0c3.666 0.316 6.517 1.592 8.553 3.829 2.036 2.236 3.08 5.18 3.133 8.831v0l-4.583-0.395c-0.155-2.784-0.84-4.85-2.055-6.199-1.209-1.342-3-2.115-5.371-2.32v0c-2.909-0.251-5.283 0.625-7.122 2.629-1.839 2.01-2.93 4.997-3.271 8.962v0l-0.288 3.348c-0.323 3.746 0.204 6.793 1.581 9.139 1.377 2.347 3.47 3.641 6.28 3.884v0c2.531 0.218 4.52-0.189 5.967-1.223 1.453-1.026 2.522-2.941 3.205-5.746zM108.852-9.112l-0.141 2.636-0.968 8.721-3.065-0.164 0.629-11.383zM124.344 12.383v0c-3.894-1.214-6.712-2.665-8.455-4.351-1.749-1.68-2.597-3.726-2.543-6.139v0c0.061-2.726 1.202-4.958 3.421-6.695 2.219-1.731 5.075-2.557 8.568-2.478v0c2.379 0.053 4.489 0.561 6.328 1.522 1.846 0.962 3.26 2.26 4.243 3.896 0.99 1.643 1.464 3.424 1.421 5.344v0l-4.589-0.103c0.047-2.093-0.583-3.754-1.889-4.984-1.306-1.223-3.172-1.862-5.598-1.916v0c-2.253-0.051-4.02 0.403-5.302 1.361-1.289 0.965-1.953 2.327-1.992 4.087v0c-0.032 1.413 0.541 2.619 1.719 3.619 1.178 1.007 3.197 1.946 6.058 2.817 2.861 0.871 5.094 1.815 6.698 2.831 1.598 1.009 2.775 2.173 3.533 3.49 0.757 1.317 1.116 2.859 1.077 4.625v0c-0.063 2.806-1.206 5.028-3.431 6.665-2.231 1.644-5.176 2.425-8.835 2.342v0c-2.379-0.053-4.592-0.56-6.637-1.519-2.039-0.959-3.601-2.245-4.685-3.856-1.084-1.611-1.604-3.424-1.558-5.436v0l4.599 0.103c-0.047 2.093 0.689 3.763 2.208 5.011 1.519 1.248 3.572 1.901 6.157 1.958v0c2.406 0.054 4.263-0.398 5.572-1.355 1.308-0.951 1.982-2.276 2.02-3.976 0.038-1.693-0.529-3.019-1.701-3.979-1.166-0.953-3.301-1.915-6.407-2.884zM167.596 27.213l-12.009 0.507-1.462-34.619 11.32-0.478c3.757-0.159 6.614 0.498 8.571 1.97 1.964 1.478 3.01 3.74 3.139 6.783v0c0.068 1.612-0.331 3.06-1.198 4.345-0.867 1.284-2.078 2.3-3.635 3.046v0c1.887 0.447 3.405 1.381 4.552 2.8 1.148 1.419 1.764 3.145 1.851 5.177v0c0.131 3.104-0.772 5.584-2.709 7.441-1.936 1.863-4.743 2.873-8.42 3.028zM167.082 11.01l-7.613 0.322 0.526 12.459 7.534-0.319c2.125-0.09 3.78-0.71 4.965-1.861 1.179-1.151 1.728-2.695 1.646-4.633v0c-0.176-4.17-2.529-6.159-7.058-5.968zM158.85-3.335l0.465 11.01 6.893-0.291c1.998-0.084 3.576-0.651 4.733-1.701 1.15-1.049 1.689-2.43 1.616-4.142v0c-0.08-1.898-0.691-3.257-1.833-4.077-1.149-0.819-2.856-1.181-5.12-1.085v0zM187.971-8.873l2.747 30.788 16.355-1.459 0.332 3.725-20.927 1.867-3.079-34.513zM235.557 1.748l0.292 2.16c0.455 3.369 0.286 6.382-0.505 9.039-0.791 2.663-2.134 4.795-4.031 6.397-1.903 1.602-4.235 2.59-6.996 2.962v0c-2.709 0.366-5.197 0.025-7.464-1.02-2.275-1.052-4.156-2.729-5.644-5.031-1.481-2.303-2.458-5.073-2.928-8.312v0l-0.333-2.468c-0.446-3.303-0.265-6.298 0.543-8.984 0.801-2.685 2.162-4.843 4.08-6.474 1.92-1.625 4.231-2.62 6.933-2.984v0c2.748-0.371 5.263-0.034 7.543 1.01 2.28 1.044 4.156 2.752 5.626 5.123 1.47 2.371 2.432 5.232 2.884 8.582zM231.395 4.852l-0.343-2.547c-0.55-4.076-1.791-7.091-3.724-9.043-1.926-1.96-4.359-2.741-7.299-2.344v0c-2.861 0.386-4.966 1.78-6.317 4.183-1.352 2.396-1.789 5.532-1.313 9.41v0l0.34 2.517c0.533 3.951 1.781 6.941 3.743 8.97 1.963 2.036 4.402 2.857 7.316 2.463v0c2.92-0.394 5.039-1.767 6.356-4.117 1.318-2.344 1.732-5.508 1.241-9.492zM267.349-3.123l2.363 12.478c-0.839 1.876-2.213 3.418-4.121 4.628-1.908 1.21-4.235 2.074-6.979 2.594v0c-2.777 0.526-5.364 0.341-7.759-0.556-2.402-0.895-4.416-2.431-6.042-4.606-1.634-2.181-2.767-4.85-3.4-8.007v0l-0.562-2.968c-0.971-5.129-0.526-9.332 1.337-12.609 1.857-3.269 4.951-5.314 9.281-6.134v0c3.557-0.674 6.591-0.309 9.103 1.095 2.505 1.405 4.316 3.729 5.432 6.971v0l-4.49 0.851c-1.691-4.341-4.796-6.084-9.316-5.228v0c-3.007 0.569-5.086 2.056-6.239 4.459-1.152 2.41-1.355 5.617-0.61 9.621v0l0.526 2.781c0.723 3.819 2.169 6.69 4.339 8.613 2.176 1.922 4.75 2.601 7.724 2.038v0c1.683-0.319 3.122-0.785 4.315-1.397 1.193-0.613 2.119-1.443 2.775-2.49v0l-1.447-7.644-7.88 1.492-0.691-3.645z" opacity="1" transform="matrix(1,0,0,1,0,0)" fill="#4a596d" class="undefined-text-0" data-fill-palette-color="primary" id="text-0"></path></svg></g></svg></g><g transform="matrix(1,0,0,1,118.31980799999998,94.36046742000045)"><svg viewBox="0 0 158.88038400000002 15.692310021210497" height="15.692310021210497" width="158.88038400000002"><g transform="matrix(1,0,0,1,0,0)"><svg width="158.88038400000002" viewBox="2.1500000953674316 -36.25 466.7099914550781 46.099998474121094" height="15.692310021210497" data-palette-color="#aab7c0"><path d="M18.15-35Q24.75-35 29-32.33 33.25-29.65 33.35-24.4L33.35-24.4 33.35-23.8 23-23.8 23-24Q23-25.5 21.9-26.5 20.8-27.5 18.55-27.5L18.55-27.5Q16.35-27.5 15.18-26.85 14-26.2 14-25.25L14-25.25Q14-23.9 15.6-23.25 17.2-22.6 20.75-21.9L20.75-21.9Q24.9-21.05 27.58-20.13 30.25-19.2 32.25-17.1 34.25-15 34.3-11.4L34.3-11.4Q34.3-5.3 30.18-2.35 26.05 0.6 19.15 0.6L19.15 0.6Q11.1 0.6 6.63-2.1 2.15-4.8 2.15-11.65L2.15-11.65 12.6-11.65Q12.6-9.05 13.95-8.18 15.3-7.3 18.15-7.3L18.15-7.3Q20.25-7.3 21.63-7.75 23-8.2 23-9.6L23-9.6Q23-10.85 21.48-11.48 19.95-12.1 16.5-12.8L16.5-12.8Q12.3-13.7 9.55-14.68 6.8-15.65 4.75-17.9 2.7-20.15 2.7-24L2.7-24Q2.7-29.65 7.08-32.33 11.45-35 18.15-35L18.15-35ZM49.4-29.5L39.45-29.5 39.45-36.25 49.4-36.25 49.4-29.5ZM49.4 0L39.45 0 39.45-26.4 49.4-26.4 49.4 0ZM90.8-27Q95.3-27 97.55-24.43 99.8-21.85 99.8-17.1L99.8-17.1 99.8 0 89.84 0 89.84-15.9Q89.84-17.6 89.02-18.63 88.2-19.65 86.7-19.65L86.7-19.65Q84.95-19.65 83.84-18.45 82.75-17.25 82.75-15.5L82.75-15.5 82.75 0 72.8 0 72.8-15.9Q72.8-17.6 71.97-18.63 71.15-19.65 69.65-19.65L69.65-19.65Q67.9-19.65 66.8-18.45 65.7-17.25 65.7-15.5L65.7-15.5 65.7 0 55.75 0 55.75-26.4 63.9-26.4 64.55-22.45Q66.05-24.55 68.52-25.78 71-27 73.75-27L73.75-27Q79.7-27 81.75-22.45L81.75-22.45Q83.3-24.55 85.72-25.78 88.15-27 90.8-27L90.8-27ZM123.14-27Q128.49-27 131.39-23.5 134.29-20 134.29-13.15L134.29-13.15Q134.29-6.35 131.39-2.88 128.49 0.6 123.14 0.6L123.14 0.6Q118.54 0.6 115.74-2.4L115.74-2.4 115.74 9.85 105.79 9.85 105.79-26.4 113.89-26.4 114.74-22.65Q117.64-27 123.14-27L123.14-27ZM120.04-19.65Q117.84-19.65 116.74-18.1 115.64-16.55 115.64-14.05L115.64-14.05 115.64-12.4Q115.64-9.9 116.74-8.33 117.84-6.75 120.04-6.75L120.04-6.75Q124.34-6.75 124.34-11.9L124.34-11.9 124.34-14.55Q124.34-19.65 120.04-19.65L120.04-19.65ZM149.39 0L139.44 0 139.44-36.25 149.39-36.25 149.39 0ZM169.39-27Q176.64-27 180.46-23.6 184.29-20.2 184.29-13.2L184.29-13.2 184.29-11.5 164.49-11.5Q164.49-8.65 165.76-7.2 167.04-5.75 169.79-5.75L169.79-5.75Q172.29-5.75 173.46-6.8 174.64-7.85 174.64-9.6L174.64-9.6 184.29-9.6Q184.29-4.8 180.64-2.1 176.99 0.6 169.99 0.6L169.99 0.6Q162.64 0.6 158.59-2.83 154.54-6.25 154.54-13.2L154.54-13.2Q154.54-20 158.49-23.5 162.44-27 169.39-27L169.39-27ZM169.79-20.65Q165.09-20.65 164.54-16.2L164.54-16.2 174.24-16.2Q174.24-18.25 173.06-19.45 171.89-20.65 169.79-20.65L169.79-20.65ZM223.58-35Q228.68-35 232.43-33.75 236.18-32.5 238.18-30.35 240.18-28.2 240.18-25.6L240.18-25.6 240.18-24.35 231.33-24.35Q231.33-25.9 229.51-26.93 227.68-27.95 224.23-27.95L224.23-27.95Q221.03-27.95 219.36-26.73 217.68-25.5 217.68-23.75L217.68-23.75Q217.68-22.2 218.71-21.4 219.73-20.6 221.23-20.6L221.23-20.6 226.43-20.6 226.43-14.45 220.13-14.45Q218.58-14.45 217.61-13.53 216.63-12.6 216.63-10.85L216.63-10.85Q216.63-8.8 218.36-7.63 220.08-6.45 223.83-6.45L223.83-6.45Q231.33-6.45 231.33-10.9L231.33-10.9 231.33-20.6 247.13-20.6 247.13-14.45 240.28-14.45 240.28-11.1Q240.28-5.5 236.31-2.45 232.33 0.6 223.88 0.6L223.88 0.6Q215.18 0.6 210.83-2.2 206.48-5 206.48-9.6L206.48-9.6Q206.48-12.6 208.06-14.78 209.63-16.95 212.48-17.85L212.48-17.85 212.48-18.05Q210.33-18.85 208.91-20.8 207.48-22.75 207.48-25.15L207.48-25.15Q207.48-27.85 209.31-30.1 211.13-32.35 214.78-33.68 218.43-35 223.58-35L223.58-35ZM282.88-27.05Q284.03-27.05 284.93-26.78 285.83-26.5 285.83-26.45L285.83-26.45 285.83-18.1 282.63-18.1Q279.53-18.1 278.15-16.5 276.78-14.9 276.78-11.75L276.78-11.75 276.78 0 266.83 0 266.83-26.4 274.98-26.4 275.63-22.4Q276.53-24.7 278.48-25.88 280.43-27.05 282.88-27.05L282.88-27.05ZM303.47-27Q310.72-27 314.55-23.6 318.38-20.2 318.38-13.2L318.38-13.2 318.38-11.5 298.57-11.5Q298.57-8.65 299.85-7.2 301.13-5.75 303.88-5.75L303.88-5.75Q306.38-5.75 307.55-6.8 308.72-7.85 308.72-9.6L308.72-9.6 318.38-9.6Q318.38-4.8 314.72-2.1 311.07 0.6 304.07 0.6L304.07 0.6Q296.72 0.6 292.68-2.83 288.63-6.25 288.63-13.2L288.63-13.2Q288.63-20 292.57-23.5 296.52-27 303.47-27L303.47-27ZM303.88-20.65Q299.18-20.65 298.63-16.2L298.63-16.2 308.32-16.2Q308.32-18.25 307.15-19.45 305.97-20.65 303.88-20.65L303.88-20.65ZM333.47 0L323.52 0 323.52-36.25 333.47-36.25 333.47 0ZM350.12-29.5L340.17-29.5 340.17-36.25 350.12-36.25 350.12-29.5ZM350.12 0L340.17 0 340.17-26.4 350.12-26.4 350.12 0ZM369.52-27Q375.57-27 379.37-24.98 383.17-22.95 383.17-18.4L383.17-18.4 383.17-8.1Q383.17-7.25 383.57-6.7 383.97-6.15 384.77-6.15L384.77-6.15 386.57-6.15 386.57-0.4Q386.42-0.3 385.79-0.08 385.17 0.15 384.02 0.38 382.87 0.6 381.37 0.6L381.37 0.6Q378.47 0.6 376.59-0.28 374.72-1.15 374.02-2.7L374.02-2.7Q372.12-1.2 369.77-0.3 367.42 0.6 364.27 0.6L364.27 0.6Q354.97 0.6 354.97-6.8L354.97-6.8Q354.97-10.65 357.04-12.68 359.12-14.7 363.02-15.45 366.92-16.2 373.22-16.2L373.22-16.2 373.22-17.5Q373.22-19.05 372.14-19.85 371.07-20.65 369.37-20.65L369.37-20.65Q367.82-20.65 366.69-20.1 365.57-19.55 365.57-18.35L365.57-18.35 365.57-18.15 355.77-18.15Q355.72-18.4 355.72-18.85L355.72-18.85Q355.72-22.6 359.29-24.8 362.87-27 369.52-27L369.52-27ZM373.22-11.5Q368.97-11.5 366.94-10.58 364.92-9.65 364.92-8.1L364.92-8.1Q364.92-5.6 368.32-5.6L368.32-5.6Q370.27-5.6 371.74-6.65 373.22-7.7 373.22-9.25L373.22-9.25 373.22-11.5ZM400.31-23.95Q403.17-27 407.71-27L407.71-27Q413.06-27 415.96-23.53 418.87-20.05 418.87-13.25L418.87-13.25Q418.87-6.4 415.96-2.9 413.06 0.6 407.71 0.6L407.71 0.6Q402.21 0.6 399.31-3.75L399.31-3.75 398.46 0 390.37 0 390.37-36.25 400.31-36.25 400.31-23.95ZM404.62-19.65Q402.42-19.65 401.31-18.07 400.21-16.5 400.21-14L400.21-14 400.21-12.35Q400.21-9.85 401.31-8.3 402.42-6.75 404.62-6.75L404.62-6.75Q408.92-6.75 408.92-11.85L408.92-11.85 408.92-14.5Q408.92-19.65 404.62-19.65L404.62-19.65ZM433.96 0L424.01 0 424.01-36.25 433.96-36.25 433.96 0ZM453.96-27Q461.21-27 465.04-23.6 468.86-20.2 468.86-13.2L468.86-13.2 468.86-11.5 449.06-11.5Q449.06-8.65 450.33-7.2 451.61-5.75 454.36-5.75L454.36-5.75Q456.86-5.75 458.04-6.8 459.21-7.85 459.21-9.6L459.21-9.6 468.86-9.6Q468.86-4.8 465.21-2.1 461.56 0.6 454.56 0.6L454.56 0.6Q447.21 0.6 443.16-2.83 439.11-6.25 439.11-13.2L439.11-13.2Q439.11-20 443.06-23.5 447.01-27 453.96-27L453.96-27ZM454.36-20.65Q449.66-20.65 449.11-16.2L449.11-16.2 458.81-16.2Q458.81-18.25 457.63-19.45 456.46-20.65 454.36-20.65L454.36-20.65Z" opacity="1" transform="matrix(1,0,0,1,0,0)" fill="#aab7c0" class="undefined-text-1" data-fill-palette-color="secondary" id="text-1"></path></svg></g></svg></g></svg></g></svg></g><g transform="matrix(1,0,0,1,60.19541359798259,0)"><svg viewBox="0 0 275.1291728040348 220.1055548824219" height="220.1055548824219" width="275.1291728040348"><g><svg xmlns="http://www.w3.org/2000/svg" xmlns:xlink="http://www.w3.org/1999/xlink" version="1.1" x="0" y="0" viewBox="0 10 99.99899291992188 80" enable-background="new 0 0 100 100" xml:space="preserve" height="220.1055548824219" width="275.1291728040348" class="icon-icon-0" data-fill-palette-color="accent" id="icon-0"><path fill="#4a596d" d="M97.327 10H2.673C1.197 10 0 11.197 0 12.673V25v62.327C0 88.803 1.197 90 2.673 90h94.653c1.476 0 2.673-1.197 2.673-2.673V25 12.673C100 11.197 98.803 10 97.327 10zM95 85H5V30h90V85zM5 25V15h90v10H5z" data-fill-palette-color="accent"></path><circle fill="#4a596d" cx="10" cy="20" r="2.0" data-fill-palette-color="accent"></circle><circle fill="#4a596d" cx="17.5" cy="20" r="2.0" data-fill-palette-color="accent"></circle><circle fill="#4a596d" cx="25" cy="20" r="2.0" data-fill-palette-color="accent"></circle><path fill="#4a596d" d="M32.116 73.384c-0.764 0.764-2.004 0.764-2.768 0L15.61 59.645c-0.909-0.909-0.909-2.382 0-3.29l13.739-13.739c0.764-0.764 2.004-0.764 2.768 0l0.643 0.643c0.833 0.833 0.833 2.184 0 3.018L21.143 57.893c-0.059 0.059-0.059 0.155 0 0.214l11.741 11.741c0.764 0.764 0.764 2.004 0 2.768L32.116 73.384z" data-fill-palette-color="accent"></path><path fill="#4a596d" d="M68.019 73.384c0.764 0.764 2.004 0.764 2.768 0l13.739-13.739c0.909-0.909 0.909-2.382 0-3.29L70.787 42.616c-0.764-0.764-2.004-0.764-2.768 0l-0.643 0.643c-0.833 0.833-0.833 2.184 0 3.018l11.616 11.616c0.059 0.059 0.059 0.155 0 0.214L67.251 69.848c-0.764 0.764-0.764 2.004 0 2.768L68.019 73.384z" data-fill-palette-color="accent"></path><path fill="#4a596d" d="M61.388 41.954c-0.137-0.501-0.467-0.927-0.917-1.184l-0.943-0.539c-0.938-0.536-2.134-0.21-2.67 0.728L38.8 72.56c-0.258 0.451-0.325 0.985-0.189 1.486 0.137 0.501 0.467 0.927 0.917 1.184l0.943 0.539c0.938 0.536 2.134 0.21 2.67-0.728L61.2 43.44C61.457 42.989 61.525 42.454 61.388 41.954z" data-fill-palette-color="accent"></path></svg></g></svg></g><g></g></svg></g><defs></defs></svg><rect width="386.7298625164168" height="327.2" fill="none" stroke="none" visibility="hidden"></rect></g></svg></g></svg>