<?xml version="1.0" standalone="no"?>
<!DOCTYPE svg PUBLIC "-//W3C//DTD SVG 20010904//EN"
 "http://www.w3.org/TR/2001/REC-SVG-20010904/DTD/svg10.dtd">
<svg version="1.0" xmlns="http://www.w3.org/2000/svg"
 width="201.000000pt" height="201.000000pt" viewBox="0 0 201.000000 201.000000"
 preserveAspectRatio="xMidYMid meet">
<metadata>
Created by potrace 1.14, written by Peter Selinger 2001-2017
</metadata>
<g transform="translate(0.000000,201.000000) scale(0.100000,-0.100000)"
fill="#000000" stroke="none">
<path d="M1110 1758 c-155 -43 -157 -44 -315 -118 -44 -21 -100 -46 -125 -56
-87 -33 -99 -61 -53 -127 27 -39 91 -87 114 -87 24 0 195 92 214 116 12 13 28
24 37 24 8 0 31 6 50 14 19 8 75 24 124 36 49 11 103 24 119 28 29 7 106 1
161 -12 23 -6 26 -11 20 -37 -18 -89 -95 -196 -277 -382 -71 -73 -129 -135
-129 -139 0 -5 -4 -8 -8 -8 -11 0 -242 -231 -242 -242 0 -4 -34 -43 -76 -85
-42 -42 -121 -131 -177 -197 -55 -67 -104 -122 -109 -124 -26 -11 6 -101 60
-171 28 -35 95 -39 152 -8 25 13 81 43 125 66 44 22 85 44 90 49 14 11 166 58
245 76 92 21 185 35 253 38 54 2 72 10 45 21 -8 3 -6 6 5 6 9 1 17 5 17 11 0
5 11 12 25 16 30 7 28 28 -3 32 -12 2 -22 8 -22 14 0 6 9 8 20 5 16 -4 20 0
20 19 0 31 -5 32 -115 42 -125 11 -272 -1 -393 -33 -57 -15 -105 -25 -108 -23
-5 6 172 195 397 423 174 176 293 315 331 388 32 60 31 164 -2 230 -35 70
-133 159 -203 185 -63 24 -200 29 -267 10z"/>
<path d="M1493 485 c0 -8 7 -15 15 -15 7 0 12 5 10 12 -6 18 -25 21 -25 3z"/>
</g>
</svg>
